<svg width="14" height="14" viewBox="0 0 14 14" fill="none" xmlns="http://www.w3.org/2000/svg">
<path d="M7.37312 7.9927L6.71664 7.48263C6.51678 7.31695 6.24306 7.09797 6.24306 6.69739C6.24306 6.29507 6.51663 6.03931 6.75386 5.80238C7.51838 5.20034 8.28276 4.55964 8.28276 3.20959C8.28276 1.82131 7.40933 1.09096 6.9905 0.744396H8.1194L9.30421 0H5.71474C4.72979 0 3.31023 0.232877 2.27097 1.09096C1.48776 1.76671 1.10571 2.69836 1.10571 3.53733C1.10571 4.96109 2.19885 6.40456 4.12964 6.40456C4.31198 6.40456 4.5114 6.3866 4.71213 6.36806C4.6219 6.58747 4.53081 6.77024 4.53081 7.08016C4.53081 7.6457 4.82132 7.99241 5.07737 8.32087C4.25723 8.37735 2.72586 8.4683 1.59681 9.16215C0.521639 9.80155 0.194336 10.732 0.194336 11.3891C0.194336 12.7409 1.46879 14 4.1111 14C7.24452 14 8.90319 12.2663 8.90319 10.5499C8.90348 9.28887 8.17502 8.6683 7.37312 7.9927ZM4.98657 5.89304C3.41899 5.89304 2.70892 3.86666 2.70892 2.64405C2.70892 2.16787 2.79914 1.67634 3.10907 1.29241C3.40147 0.926874 3.91038 0.689652 4.38555 0.689652C5.89664 0.689652 6.68043 2.73428 6.68043 4.04914C6.68043 4.37803 6.64408 4.96095 6.2251 5.38253C5.93212 5.67522 5.44175 5.89304 4.98657 5.89304ZM5.00453 13.235C3.05519 13.235 1.79826 12.3027 1.79826 11.0059C1.79826 9.70988 2.96381 9.2712 3.36468 9.12624C4.1295 8.86888 5.11358 8.83311 5.27781 8.83311C5.46 8.83311 5.55109 8.83311 5.69621 8.85136C7.08188 9.83761 7.68334 10.329 7.68334 11.2627C7.68348 12.393 6.754 13.235 5.00453 13.235Z" fill="#061622"/>
<path d="M11.9741 5.86555V4.04004H11.0728V5.86555H9.25V6.77707H11.0728V8.61402H11.9741V6.77707H13.806V5.86555H11.9741Z" fill="#061622"/>
</svg>
