<svg width="14" height="14" viewBox="0 0 14 14" fill="none" xmlns="http://www.w3.org/2000/svg">
<path d="M12.7048 7.08764C12.5602 6.4591 12.046 5.99545 11.4272 5.92644C9.96218 5.76278 8.47861 5.76201 7.00229 5.76278C5.52535 5.76201 4.04209 5.76278 2.57658 5.92644C1.95808 5.99561 1.44425 6.45926 1.29974 7.08764C1.09378 7.98266 1.09131 8.95967 1.09131 9.88125C1.09131 10.8028 1.09131 11.7797 1.29727 12.6747C1.44178 13.3031 1.95561 13.7667 2.57442 13.8359C4.03962 13.9997 5.52288 14.0003 6.99966 13.9997C8.4766 14.0005 9.95956 13.9997 11.4252 13.8359C12.0437 13.7667 12.5579 13.3031 12.7024 12.6747C12.9082 11.7797 12.9093 10.8028 12.9093 9.88125C12.9091 8.95951 12.9106 7.98266 12.7048 7.08764ZM4.4622 7.78133H3.60685V12.3264H2.81234V7.78133H1.97259V7.03684H4.4622V7.78133ZM6.62016 12.3265H5.90547V11.8966C5.62154 12.222 5.35197 12.3807 5.08935 12.3807C4.85914 12.3807 4.70074 12.2875 4.62925 12.0878C4.59034 11.9687 4.56626 11.78 4.56626 11.5018V8.38517H5.28033V11.287C5.28033 11.4544 5.28033 11.5413 5.28682 11.5648C5.30395 11.6756 5.35815 11.7318 5.45387 11.7318C5.59715 11.7318 5.74691 11.6214 5.90532 11.3974V8.38517H6.62001L6.62016 12.3265ZM9.33333 11.1436C9.33333 11.5081 9.30878 11.7707 9.26108 11.9378C9.16566 12.231 8.97468 12.3807 8.69059 12.3807C8.43646 12.3807 8.19128 12.2396 7.95243 11.9447V12.3267H7.23836V7.03684H7.95243V8.76436C8.1831 8.48043 8.42797 8.33684 8.69059 8.33684C8.97468 8.33684 9.16582 8.48645 9.26108 8.7815C9.30909 8.94006 9.33333 9.20068 9.33333 9.57385V11.1436ZM12.0286 10.486H10.6003V11.1846C10.6003 11.5495 10.7196 11.7317 10.9651 11.7317C11.141 11.7317 11.2433 11.6361 11.2841 11.4453C11.2907 11.4065 11.3002 11.2478 11.3002 10.9614H12.0287V11.0656C12.0287 11.2958 12.0199 11.4544 12.0135 11.5257C11.9895 11.6838 11.9333 11.8272 11.8467 11.9535C11.6489 12.2398 11.3559 12.3809 10.9829 12.3809C10.6092 12.3809 10.3249 12.2464 10.1184 11.9773C9.96697 11.78 9.88915 11.4693 9.88915 11.0505V9.67004C9.88915 9.24869 9.95817 8.94052 10.1099 8.74136C10.3162 8.47163 10.6004 8.33731 10.9653 8.33731C11.3236 8.33731 11.6077 8.47163 11.8078 8.74136C11.9574 8.94052 12.0289 9.24869 12.0289 9.67004V10.486H12.0286Z" fill="#061622"/>
<path d="M10.9589 8.98047C10.7202 8.98047 10.6006 9.16281 10.6006 9.52718V9.89185H11.3147V9.52718C11.3145 9.16281 11.1952 8.98047 10.9589 8.98047Z" fill="#061622"/>
<path d="M8.30834 8.98047C8.19069 8.98047 8.07149 9.03605 7.95215 9.15416V11.5564C8.07134 11.6759 8.19069 11.7324 8.30834 11.7324C8.5143 11.7324 8.61898 11.5564 8.61898 11.2005V9.51822C8.61898 9.16281 8.5143 8.98047 8.30834 8.98047Z" fill="#061622"/>
<path d="M8.70718 5.3992C8.97042 5.3992 9.24431 5.23925 9.53164 4.91008V5.34454H10.2534V1.36133H9.53164V4.40567C9.37169 4.63171 9.22007 4.74349 9.07572 4.74349C8.97906 4.74349 8.92225 4.68636 8.9065 4.57443C8.8977 4.5508 8.8977 4.46295 8.8977 4.29389V1.36133H8.17822V4.51097C8.17822 4.79228 8.20231 4.98264 8.24214 5.10322C8.31471 5.30502 8.47481 5.3992 8.70718 5.3992Z" fill="#061622"/>
<path d="M3.68281 3.18021V5.34497H4.48319V3.18021L5.44599 0H4.63666L4.09057 2.09899L3.5224 0H2.68018C2.84893 0.495451 3.02447 0.993372 3.19323 1.48929C3.44998 2.2347 3.61025 2.7967 3.68281 3.18021Z" fill="#061622"/>
<path d="M6.5184 5.39952C6.87999 5.39952 7.16098 5.2635 7.36031 4.99176C7.51177 4.79244 7.58433 4.4784 7.58433 4.05505V2.66026C7.58433 2.23444 7.51192 1.92318 7.36031 1.722C7.16098 1.4495 6.88014 1.31348 6.5184 1.31348C6.15866 1.31348 5.87781 1.4495 5.67803 1.722C5.52471 1.92318 5.45215 2.23444 5.45215 2.66026V4.05505C5.45215 4.4784 5.52471 4.79244 5.67803 4.99176C5.87766 5.2635 6.15866 5.39952 6.5184 5.39952ZM6.17394 2.51559C6.17394 2.14705 6.28572 1.96332 6.5184 1.96332C6.75107 1.96332 6.86254 2.1469 6.86254 2.51559V4.19108C6.86254 4.55961 6.75107 4.74396 6.5184 4.74396C6.28572 4.74396 6.17394 4.55961 6.17394 4.19108V2.51559Z" fill="#061622"/>
</svg>
