<svg width="13" height="15" viewBox="0 0 13 15" fill="none" xmlns="http://www.w3.org/2000/svg">
<path d="M12.3236 3.15872C12.3168 3.05929 12.2485 2.98116 12.153 2.95985C9.77151 2.5337 6.64622 0.608933 6.61893 0.587625C6.55069 0.54501 6.4688 0.54501 6.40739 0.587625C6.37327 0.608933 3.24116 2.5337 0.859658 2.96695C0.770949 2.98116 0.695887 3.05929 0.689063 3.15872C0.68224 3.22975 0.525293 5.01247 1.14626 7.29946C1.50792 8.64183 2.06747 9.88476 2.81126 10.9785C3.73929 12.3493 4.9471 13.507 6.40739 14.4161C6.44151 14.4375 6.47563 14.4446 6.51657 14.4446C6.55751 14.4446 6.59163 14.4303 6.62575 14.409C8.0451 13.4928 9.23243 12.3351 10.1468 10.9572C10.877 9.85635 11.4365 8.62052 11.8118 7.27816C12.4464 5.00536 12.3236 3.23685 12.3236 3.15872ZM11.4092 7.16452C11.0476 8.45717 10.5017 9.65749 9.79881 10.7158C8.93901 12.0084 7.83356 13.1022 6.50975 13.9758C5.15181 13.1093 4.02589 12.0226 3.15927 10.7371C2.44277 9.6859 1.9037 8.49268 1.54886 7.20003C1.05072 5.37469 1.07119 3.84766 1.09167 3.36469C3.29575 2.91013 5.93655 1.3689 6.50292 1.02798C7.0693 1.3689 9.70327 2.91013 11.9074 3.35759C11.9278 3.84766 11.9142 5.34628 11.4092 7.16452Z" fill="white"/>
</svg>
