<svg width="13" height="15" viewBox="0 0 13 15" fill="none" xmlns="http://www.w3.org/2000/svg">
<path d="M12.3236 3.15872C12.3168 3.05929 12.2485 2.98116 12.153 2.95985C9.77151 2.5337 6.64622 0.608933 6.61893 0.587625C6.55069 0.54501 6.4688 0.54501 6.40739 0.587625C6.37327 0.608933 3.24116 2.5337 0.859658 2.96695C0.770949 2.98116 0.695887 3.05929 0.689063 3.15872C0.68224 3.22975 0.525293 5.01247 1.14626 7.29946C1.50792 8.64183 2.06747 9.88476 2.81126 10.9785C3.73929 12.3493 4.9471 13.507 6.40739 14.4161C6.44151 14.4375 6.47563 14.4446 6.51657 14.4446C6.55751 14.4446 6.59163 14.4303 6.62575 14.409C8.0451 13.4928 9.23243 12.3351 10.1468 10.9572C10.877 9.85635 11.4365 8.62052 11.8118 7.27816C12.4464 5.00536 12.3236 3.23685 12.3236 3.15872ZM11.4092 7.16452C11.0476 8.45717 10.5017 9.65749 9.79881 10.7158C8.93901 12.0084 7.83356 13.1022 6.50975 13.9758C5.15181 13.1093 4.02589 12.0226 3.15927 10.7371C2.44277 9.6859 1.9037 8.49268 1.54886 7.20003C1.05072 5.37469 1.07119 3.84766 1.09167 3.36469C3.29575 2.91013 5.93655 1.3689 6.50292 1.02798C7.0693 1.3689 9.70327 2.91013 11.9074 3.35759C11.9278 3.84766 11.9142 5.34628 11.4092 7.16452Z" fill="white"/>
<path d="M5.26072 10.403C5.31532 10.403 5.3699 10.3817 5.41085 10.3391L10.5082 4.94117C10.5901 4.85594 10.5901 4.721 10.5082 4.63577L9.73712 3.84029C9.69618 3.79767 9.64159 3.77637 9.587 3.77637C9.53241 3.77637 9.47782 3.79767 9.43688 3.84029L5.20613 8.30775L4.35316 7.52647C4.31222 7.49096 4.25763 7.46965 4.19622 7.47676C4.14162 7.48386 4.08703 7.51227 4.05292 7.55488L3.3296 8.4711C3.26136 8.56344 3.26818 8.69838 3.35689 8.76941L5.12425 10.3462C5.16519 10.3817 5.21296 10.403 5.26072 10.403ZM4.24398 8.00234L5.09013 8.76941C5.17202 8.84753 5.29484 8.84043 5.37673 8.7552L9.59382 4.30195L10.0715 4.79202L5.2539 9.8916L3.78679 8.58474L4.24398 8.00234Z" fill="white"/>
<path d="M6.30496 5.73652C6.30496 5.85726 6.40049 5.9496 6.50967 5.9496C6.62568 5.9496 6.71439 5.85016 6.71439 5.73652V2.75348C6.74168 2.77479 6.76215 2.7961 6.78945 2.8174C7.2057 3.12991 7.74478 3.40691 8.39304 3.62709C8.41351 3.63419 8.43398 3.64129 8.46127 3.64129C8.54998 3.64129 8.63187 3.58447 8.65916 3.49214C8.69328 3.3785 8.63869 3.25776 8.52951 3.21514C7.12381 2.72507 6.68709 2.13557 6.68027 2.12847C6.68027 2.12847 6.68027 2.12847 6.67344 2.12136C6.66662 2.11426 6.6598 2.10716 6.65297 2.10006L6.64615 2.09295C6.63933 2.08585 6.62568 2.07875 6.61885 2.07165C6.61203 2.07165 6.61203 2.06454 6.60521 2.06454C6.59838 2.06454 6.59838 2.05744 6.59156 2.05744C6.59156 2.05744 6.58474 2.05744 6.58474 2.05034C6.57791 2.05034 6.57791 2.05034 6.57109 2.04324C6.56426 2.04324 6.55062 2.03613 6.54379 2.03613H6.53697C6.52332 2.03613 6.5165 2.03613 6.50285 2.03613C6.49603 2.03613 6.49603 2.03613 6.4892 2.03613C6.48238 2.03613 6.47556 2.03613 6.46191 2.03613C6.45508 2.03613 6.45508 2.03613 6.44826 2.03613C6.43461 2.03613 6.42779 2.04324 6.41414 2.05034C6.41414 2.05034 6.41414 2.05034 6.40732 2.05034C6.40049 2.05744 6.38685 2.05744 6.38002 2.06454C6.38002 2.06454 6.38002 2.06454 6.3732 2.06454C6.3732 2.06454 6.3732 2.06454 6.36637 2.07165L6.35955 2.07875C6.35955 2.10716 4.63996 3.57737 2.30623 4.13136C2.21069 4.15267 2.14246 4.2379 2.14246 4.34444C2.14246 4.41546 2.14246 6.16977 2.72248 7.58316C2.7566 7.66839 2.83166 7.71811 2.91354 7.71811C2.94084 7.71811 2.96813 7.71101 2.99543 7.70391C3.09778 7.65419 3.15238 7.53345 3.10461 7.41981C2.66106 6.33313 2.57918 4.98366 2.56553 4.5149C4.31924 4.06034 5.69764 3.14412 6.30496 2.68956V5.73652Z" fill="white"/>
<path d="M10.6586 5.72266C10.5494 5.69425 10.4334 5.77238 10.4129 5.88602C10.4129 5.90022 10.1673 6.994 9.54631 8.36478C9.02088 9.53669 8.11331 11.1276 6.72126 12.2924V10.1759C6.72126 10.0552 6.62573 9.96284 6.51655 9.96284C6.40055 9.96284 6.31184 10.0623 6.31184 10.1759V12.2782C5.21321 11.3407 4.89931 10.9075 4.89249 10.9004C4.82425 10.8009 4.6946 10.7796 4.60589 10.8506C4.51036 10.9217 4.48989 11.0566 4.55813 11.1561C4.57177 11.1774 4.96073 11.7171 6.39372 12.9033C6.40737 12.9104 6.41419 12.9175 6.42784 12.9246C6.42784 12.9246 6.43466 12.9246 6.43466 12.9317C6.44831 12.9388 6.45514 12.9388 6.46878 12.9459C6.47561 12.9459 6.47561 12.9459 6.48243 12.9459C6.49608 12.9459 6.50973 12.953 6.52337 12.953C6.53702 12.953 6.55067 12.953 6.56432 12.9459H6.57114C6.58479 12.9459 6.59843 12.9388 6.60526 12.9317C6.60526 12.9317 6.61208 12.9317 6.61208 12.9246C6.61891 12.9175 6.62573 12.9175 6.63255 12.9104C8.28391 11.6816 9.33477 9.8634 9.92162 8.55655C10.5562 7.14315 10.8019 6.03517 10.8155 5.98545C10.836 5.86471 10.7678 5.74397 10.6586 5.72266Z" fill="white"/>
</svg>
