<svg width="11" height="14" viewBox="0 0 11 14" fill="none" xmlns="http://www.w3.org/2000/svg">
<path d="M5.324 6.84692C6.88057 6.84692 8.14255 5.3142 8.14255 3.42348C8.14255 1.53272 7.72822 0 5.324 0C2.91977 0 2.50537 1.53272 2.50537 3.42348C2.50537 5.3142 3.76734 6.84692 5.324 6.84692Z" fill="#009344"/>
<path d="M7.91699e-05 12.0749C1.06068e-05 11.9596 -5.79564e-05 12.0424 7.91699e-05 12.0749V12.0749Z" fill="#009344"/>
<path d="M10.647 12.1653C10.6485 12.1337 10.6475 11.9463 10.647 12.1653V12.1653Z" fill="#009344"/>
<path d="M10.9648 11.8263C10.9126 8.53261 10.4824 7.59408 7.19073 7C7.19073 7 6.72737 7.59044 5.64737 7.59044C4.56737 7.59044 4.10393 7 4.10393 7C0.84813 7.5876 0.39181 8.51221 0.33181 11.7193C0.32689 11.9812 0.32461 11.995 0.32373 11.9646C0.32393 12.0215 0.32417 12.1269 0.32417 12.3106C0.32417 12.3106 1.10785 13.8905 5.64737 13.8905C10.1868 13.8905 10.9706 12.3106 10.9706 12.3106C10.9706 12.1926 10.9707 12.1105 10.9708 12.0546C10.9699 12.0734 10.9681 12.037 10.9648 11.8263Z" fill="#009344"/>
</svg>
