<svg width="41" height="27" viewBox="0 0 41 27" fill="none" xmlns="http://www.w3.org/2000/svg">
<path d="M25.5274 8.0458H20.5785V7.08987C20.5785 5.09833 19.147 3.48519 17.3884 3.48519H15.4456C13.687 3.48519 12.2555 5.09833 12.2555 7.08987V8.0458H9.49475H8.22686C7.92012 8.0458 7.67472 8.26487 7.63382 8.5636L5.3639 25.4518H4.05511L3.23712 4.22206H11.9283C12.2555 4.22206 12.5418 3.96316 12.5418 3.6246C12.5418 3.30595 12.2759 3.02713 11.9283 3.02713H10.9671V2.52925C10.9671 1.15509 9.90374 0 8.57451 0C7.24527 0 6.16144 1.15509 6.16144 2.54917V3.04705H2.60318H1.74429C1.41709 3.04705 1.15124 3.30595 1.13079 3.6246L0.333252 26.0294C0.333252 26.1887 0.394601 26.348 0.49685 26.4675C0.619549 26.587 0.762697 26.6468 0.926295 26.6468H3.44162H5.87514H9.5561H27.1429C27.3065 26.6468 27.4701 26.5671 27.5928 26.4476C27.7155 26.3281 27.7564 26.1688 27.7564 25.9895L26.1204 8.58352C26.1 8.28479 25.8341 8.0458 25.5274 8.0458ZM7.38842 2.54917C7.38842 1.79238 7.92012 1.17501 8.57451 1.17501C9.2289 1.17501 9.7606 1.79238 9.7606 2.54917V3.04705H7.38842V2.54917ZM19.372 7.10978V8.06572H15.4047V7.10978C15.4047 5.77545 16.2841 4.68011 17.3884 4.68011C18.4722 4.68011 19.372 5.75554 19.372 7.10978ZM13.4825 7.10978C13.4825 5.97461 14.1164 5.01867 14.9957 4.75977C14.5049 5.39706 14.2186 6.21359 14.2186 7.10978V8.06572H13.4825V7.10978ZM2.17373 8.28479L2.82812 25.4717H1.56024L2.17373 8.28479ZM8.75856 9.22081H8.88126L8.94261 25.4518H6.57043L8.75856 9.22081ZM10.1696 25.4518L10.1082 9.22081H24.9752L26.4885 25.4518H10.1696Z" fill="white"/>
<path d="M39.7197 15.9721H35.7933V13.1641H37.2044C37.5316 13.1641 37.8179 12.9052 37.8179 12.5666V10.2166C37.8179 9.89796 37.552 9.61914 37.2044 9.61914H27.7157C27.3885 9.61914 27.1022 9.87804 27.1022 10.2166C27.1022 10.5352 27.368 10.8141 27.7157 10.8141H36.5909V11.9891H28.1247C27.7975 11.9891 27.5112 12.248 27.5112 12.5865C27.5112 12.9052 27.777 13.184 28.1247 13.184H34.5868V15.9921H28.4519C28.1247 15.9921 27.8384 16.251 27.8384 16.5895C27.8384 16.9082 28.1042 17.187 28.4519 17.187H39.1062V18.3222H28.8609C28.5337 18.3222 28.2474 18.5811 28.2474 18.9196C28.2474 19.2383 28.5132 19.5171 28.8609 19.5171H37.1021V25.4718H29.5766C29.2494 25.4718 28.9631 25.7307 28.9631 26.0692C28.9631 26.3879 29.229 26.6667 29.5766 26.6667H37.6952C38.0224 26.6667 38.3087 26.4078 38.3087 26.0692V19.4972H39.7197C40.0469 19.4972 40.3332 19.2383 40.3332 18.8997V16.5696C40.3127 16.231 40.0469 15.9721 39.7197 15.9721Z" fill="white"/>
</svg>
