<svg width="37" height="33" viewBox="0 0 37 33" fill="none" xmlns="http://www.w3.org/2000/svg">
<path d="M23.9143 25.2729L28.5795 20.7142C28.7214 20.5723 28.7746 20.3594 28.7214 20.1466C28.6505 19.9514 28.4908 19.8095 28.2779 19.7741L21.8212 18.8339L18.9298 12.9803C18.8411 12.7851 18.646 12.6787 18.4332 12.6787C18.2203 12.6787 18.0429 12.8029 17.9365 12.9803L15.0451 18.8339L8.58837 19.7741C8.37551 19.8095 8.21586 19.9514 8.14491 20.1466C8.07396 20.3417 8.12717 20.5545 8.28682 20.7142L13.0052 25.2729L11.9054 31.6942C11.87 31.9071 11.9587 32.1022 12.1183 32.2264C12.2779 32.3505 12.5085 32.3683 12.6859 32.2619L18.4509 29.2286L24.2159 32.2619C24.3046 32.2973 24.3755 32.3328 24.4642 32.3328C24.5706 32.3328 24.6948 32.2973 24.7835 32.2264C24.9431 32.1022 25.0318 31.8894 24.9964 31.6942L23.9143 25.2729ZM18.717 28.1466C18.646 28.1111 18.5573 28.0756 18.4686 28.0756C18.3799 28.0756 18.2913 28.0933 18.2203 28.1466L13.1826 30.8073L14.1405 25.1843C14.176 25.0069 14.105 24.8295 13.9808 24.7053L9.90101 20.7319L15.5418 19.916C15.7192 19.8982 15.8788 19.7741 15.9498 19.6144L18.4686 14.5058L20.9875 19.6144C21.0584 19.7741 21.2181 19.8805 21.3955 19.916L27.0363 20.7319L22.9564 24.7053C22.8323 24.8295 22.7613 25.0069 22.7968 25.1843L23.7547 30.8073L18.717 28.1466Z" fill="white"/>
<path d="M11.0893 25.9652H1.88312L3.71017 24.0672C3.90529 23.8543 3.90529 23.5173 3.71017 23.3044L1.88312 21.4064H6.58378C6.88533 21.4064 7.13367 21.1581 7.13367 20.8565C7.13367 20.555 6.88533 20.3066 6.58378 20.3066H0.605955C0.393095 20.3066 0.180234 20.4308 0.109281 20.6437C0.0205892 20.8388 0.0738043 21.0871 0.215711 21.229L2.57491 23.6769L0.215711 26.1426C0.056066 26.3022 0.0205892 26.5328 0.109281 26.7279C0.197973 26.923 0.393095 27.065 0.605955 27.065H11.0893C11.3909 27.065 11.6392 26.8166 11.6392 26.5151C11.6392 26.2135 11.3909 25.9652 11.0893 25.9652Z" fill="white"/>
<path d="M34.2914 23.6945L36.6506 21.2466C36.8102 21.087 36.8457 20.8564 36.757 20.6612C36.6683 20.4661 36.4732 20.3242 36.2603 20.3242H30.2825C29.9809 20.3242 29.7326 20.5726 29.7326 20.8741C29.7326 21.1757 29.9809 21.424 30.2825 21.424H34.9831L33.1561 23.322C32.961 23.5349 32.961 23.8719 33.1561 24.0848L34.9831 25.9828H25.7769C25.4754 25.9828 25.2271 26.2311 25.2271 26.5326C25.2271 26.8342 25.4754 27.0825 25.7769 27.0825H36.2603C36.4732 27.0825 36.686 26.9584 36.757 26.7455C36.8457 26.5504 36.7925 26.302 36.6506 26.1601L34.2914 23.6945Z" fill="white"/>
<path d="M18.5574 7.64121C20.5618 7.64121 22.2115 6.00928 22.2115 3.98711C22.2115 1.98268 20.5795 0.333008 18.5574 0.333008C16.5352 0.350746 14.9033 1.98268 14.9033 4.00485C14.9033 6.00928 16.5352 7.64121 18.5574 7.64121ZM18.5574 1.45052C19.9587 1.45052 21.1117 2.60352 21.1117 4.00485C21.1117 5.40618 19.9587 6.55917 18.5574 6.55917C17.156 6.55917 16.003 5.40618 16.003 4.00485C15.9853 2.58578 17.1383 1.45052 18.5574 1.45052Z" fill="white"/>
<path d="M12.5436 18.3726C12.5791 18.3726 12.6146 18.3903 12.6678 18.3903C12.9161 18.3903 13.1467 18.2129 13.1999 17.9646L14.4594 12.1109C14.7964 10.5145 16.2332 9.3615 17.8474 9.3615H19.3374C20.9871 9.3615 22.4239 10.5322 22.7432 12.1464L23.8962 17.9291C23.9494 18.2307 24.2509 18.4258 24.5348 18.3548C24.8363 18.3016 25.0137 18.0001 24.9605 17.7163L23.8075 11.9336C23.3818 9.80496 21.5015 8.26172 19.3374 8.26172H17.8474C15.7188 8.26172 13.8385 9.76948 13.3773 11.8626L12.1179 17.734C12.0647 18.0178 12.2421 18.3194 12.5436 18.3726Z" fill="white"/>
<path d="M7.25801 10.6039C9.03184 10.6039 10.4686 9.1671 10.4686 7.39326C10.4686 5.61942 9.03184 4.18262 7.25801 4.18262C5.48417 4.18262 4.04736 5.61942 4.04736 7.39326C4.04736 9.1671 5.48417 10.6039 7.25801 10.6039ZM7.25801 5.2824C8.42874 5.2824 9.36887 6.24027 9.36887 7.39326C9.36887 8.56399 8.411 9.50413 7.25801 9.50413C6.08727 9.50413 5.14714 8.54625 5.14714 7.39326C5.1294 6.24027 6.08727 5.2824 7.25801 5.2824Z" fill="white"/>
<path d="M2.29108 19.4731C2.32656 19.4731 2.36204 19.4908 2.39751 19.4908C2.64585 19.4908 2.87645 19.3134 2.92966 19.0474L3.81658 14.3999C4.1004 13.0695 5.3066 12.1117 6.65472 12.1117H7.93188C9.31547 12.1117 10.5039 13.0873 10.7878 14.4531C10.841 14.7547 11.1425 14.9321 11.4263 14.8788C11.7279 14.8256 11.9053 14.5241 11.8521 14.2403C11.4796 12.36 9.82989 10.9941 7.93188 10.9941H6.65472C4.77445 10.9941 3.14252 12.3245 2.75228 14.1516C2.75228 14.1516 2.75228 14.1516 2.75228 14.1693L1.86536 18.8345C1.79441 19.136 1.98953 19.4199 2.29108 19.4731Z" fill="white"/>
<path d="M29.6792 10.6039C31.453 10.6039 32.8899 9.1671 32.8899 7.39326C32.8899 5.61942 31.453 4.18262 29.6792 4.18262C27.9054 4.18262 26.4686 5.61942 26.4686 7.39326C26.4686 9.1671 27.9054 10.6039 29.6792 10.6039ZM29.6792 5.2824C30.8499 5.2824 31.7901 6.24027 31.7901 7.39326C31.7901 8.56399 30.8322 9.50413 29.6792 9.50413C28.5085 9.50413 27.5683 8.54625 27.5683 7.39326C27.5683 6.24027 28.5085 5.2824 29.6792 5.2824Z" fill="white"/>
<path d="M25.5106 14.8611C25.8121 14.9143 26.0959 14.7369 26.1491 14.4354C26.4152 13.0873 27.6214 12.0939 29.005 12.0939H30.2822C31.648 12.0939 32.8365 13.0518 33.1203 14.3822L34.0072 19.0296C34.0605 19.2957 34.2911 19.4731 34.5394 19.4731C34.5749 19.4731 34.6103 19.4731 34.6458 19.4553C34.9474 19.4021 35.1425 19.1183 35.0715 18.8168L34.1846 14.1516C34.1846 14.1516 34.1846 14.1516 34.1846 14.1338C33.7944 12.3245 32.1624 10.9941 30.2822 10.9941H29.005C27.107 10.9941 25.4574 12.3423 25.0848 14.2048C25.0139 14.5063 25.209 14.7901 25.5106 14.8611Z" fill="white"/>
</svg>
