<svg width="29" height="33" viewBox="0 0 29 33" fill="none" xmlns="http://www.w3.org/2000/svg">
<path d="M6.02951 14.2236C4.17896 14.2236 2.68188 12.7265 2.68188 10.8759C2.68188 9.0254 4.17896 7.52832 6.02951 7.52832C7.88007 7.52832 9.37714 9.0254 9.37714 10.8759C9.37714 12.7265 7.85927 14.2236 6.02951 14.2236ZM6.02951 8.58875C4.78195 8.58875 3.74231 9.60759 3.74231 10.8759C3.74231 12.1235 4.76116 13.1631 6.02951 13.1631C7.29787 13.1631 8.31671 12.1443 8.31671 10.8759C8.29592 9.62839 7.27708 8.58875 6.02951 8.58875Z" fill="white"/>
<path d="M16.8003 14.2238H11.8516C11.5605 14.2238 11.311 13.9743 11.311 13.6832C11.311 13.3921 11.5605 13.1426 11.8516 13.1426H16.8211C17.1122 13.1426 17.3617 13.3921 17.3617 13.6832C17.3409 13.9951 17.1122 14.2238 16.8003 14.2238Z" fill="white"/>
<path d="M14.514 17.6134H3.45223C3.16113 17.6134 2.91162 17.3639 2.91162 17.0728C2.91162 16.7817 3.16113 16.5322 3.45223 16.5322H14.514C14.8051 16.5322 15.0546 16.7817 15.0546 17.0728C15.0546 17.3847 14.8051 17.6134 14.514 17.6134Z" fill="white"/>
<path d="M11.5614 20.8156H3.45223C3.16113 20.8156 2.91162 20.5661 2.91162 20.275C2.91162 19.9839 3.16113 19.7344 3.45223 19.7344H11.5614C11.8525 19.7344 12.102 19.9839 12.102 20.275C12.102 20.5661 11.8525 20.8156 11.5614 20.8156Z" fill="white"/>
<path d="M10.5004 24.0168H3.43087C3.13977 24.0168 2.89026 23.7673 2.89026 23.4762C2.89026 23.1851 3.13977 22.9355 3.43087 22.9355H10.5004C10.7915 22.9355 11.041 23.1851 11.041 23.4762C11.041 23.7673 10.8123 24.0168 10.5004 24.0168Z" fill="white"/>
<path d="M10.5004 27.1984H3.43087C3.13977 27.1984 2.89026 26.9489 2.89026 26.6578C2.89026 26.3667 3.13977 26.1172 3.43087 26.1172H10.5004C10.7915 26.1172 11.041 26.3667 11.041 26.6578C11.041 26.9697 10.8123 27.1984 10.5004 27.1984Z" fill="white"/>
<path d="M16.8003 11.6457H11.8516C11.5605 11.6457 11.311 11.3962 11.311 11.1051C11.311 10.814 11.5605 10.5645 11.8516 10.5645H16.8211C17.1122 10.5645 17.3617 10.814 17.3617 11.1051C17.3409 11.417 17.1122 11.6457 16.8003 11.6457Z" fill="white"/>
<path d="M16.8003 9.06755H11.8516C11.5605 9.06755 11.311 8.81804 11.311 8.52694C11.311 8.23584 11.5605 7.98633 11.8516 7.98633H16.8211C17.1122 7.98633 17.3617 8.23584 17.3617 8.52694C17.3409 8.83883 17.1122 9.06755 16.8003 9.06755Z" fill="white"/>
<path d="M21.8115 32.5008H18.4223C18.1312 32.5008 17.8817 32.2512 17.8817 31.9601V30.3591C17.7777 30.3175 17.6738 30.2759 17.5698 30.2343L16.447 31.3572C16.2391 31.5651 15.9064 31.5651 15.6985 31.3572L13.3073 28.966C13.2033 28.862 13.141 28.7373 13.141 28.5917C13.141 28.4462 13.2033 28.3214 13.3073 28.2175L14.4301 27.0946C14.3885 26.9907 14.3469 26.8867 14.3053 26.7828H12.7043C12.4132 26.7828 12.1637 26.5332 12.1637 26.2421V22.8529C12.1637 22.5618 12.4132 22.3123 12.7043 22.3123H14.3053C14.3469 22.2084 14.3885 22.1044 14.4301 22.0004L13.2657 20.836C13.1617 20.7321 13.0994 20.6073 13.0994 20.4618C13.0994 20.3162 13.1617 20.1915 13.2657 20.0875L15.6569 17.6963C15.7608 17.5924 15.8856 17.53 16.0311 17.53C16.1767 17.53 16.3014 17.5924 16.4054 17.6963L17.5282 18.8191C17.6322 18.7776 17.7361 18.736 17.8609 18.6944V17.0933C17.8609 16.8022 18.1104 16.5527 18.4015 16.5527H21.7907C22.0818 16.5527 22.3313 16.8022 22.3313 17.0933V18.6944C22.4353 18.736 22.5393 18.7776 22.6432 18.8191L23.766 17.6963C23.974 17.4884 24.3066 17.4884 24.5146 17.6963L26.9057 20.0875C27.1137 20.2954 27.1137 20.6281 26.9057 20.836L25.7829 21.9588C25.8245 22.0628 25.8661 22.1668 25.9077 22.2707H27.5087C27.7998 22.2707 28.0493 22.5202 28.0493 22.8113V26.2006C28.0493 26.4917 27.7998 26.7412 27.5087 26.7412H25.9077C25.8661 26.8451 25.8245 26.9491 25.7829 27.0531L26.9057 28.1759C27.1137 28.3838 27.1137 28.7165 26.9057 28.9244L24.5146 31.3156C24.3066 31.5235 23.974 31.5235 23.766 31.3156L22.6432 30.1928C22.5393 30.2343 22.4353 30.2759 22.3313 30.3175V31.9186C22.3521 32.272 22.1026 32.5008 21.8115 32.5008ZM18.9421 31.4403H21.2709V29.9848C21.2709 29.7561 21.4165 29.5482 21.6452 29.465C21.9363 29.3818 22.2274 29.2571 22.5185 29.0907C22.7264 28.9868 22.9759 29.0284 23.1423 29.1947L24.1611 30.2136L25.8037 28.5709L24.7849 27.5521C24.6185 27.3857 24.577 27.1362 24.6809 26.9283C24.8265 26.6372 24.9512 26.3461 25.0552 26.055C25.1176 25.8263 25.3255 25.6807 25.575 25.6807H27.0097V23.352H25.575C25.3463 23.352 25.1384 23.2064 25.0552 22.9777C24.972 22.6866 24.8473 22.3955 24.6809 22.1044C24.577 21.8965 24.6185 21.647 24.7849 21.4806L25.8037 20.4618L24.1611 18.8191L23.1423 19.838C22.9759 20.0043 22.7264 20.0459 22.5185 19.9419C22.2274 19.7964 21.9363 19.6716 21.6452 19.5677C21.4165 19.5053 21.2709 19.2974 21.2709 19.0479V17.6132H18.9421V19.0479C18.9421 19.2766 18.7966 19.4845 18.5679 19.5677C18.2768 19.6509 17.9857 19.7756 17.6946 19.9419C17.4866 20.0459 17.2371 20.0043 17.0708 19.838L16.0519 18.8191L14.4093 20.4618L15.4282 21.4806C15.5945 21.647 15.6361 21.8965 15.5321 22.1044C15.3866 22.3955 15.2618 22.6866 15.1578 22.9777C15.0955 23.2064 14.8875 23.352 14.638 23.352H13.2033V25.6807H14.638C14.8668 25.6807 15.0747 25.8263 15.1578 26.055C15.241 26.3461 15.3658 26.6372 15.5321 26.9283C15.6361 27.1362 15.5945 27.3857 15.4282 27.5521L14.4093 28.5709L16.0519 30.2136L17.0708 29.1947C17.2371 29.0284 17.4866 28.9868 17.6946 29.0907C17.9857 29.2363 18.2768 29.3611 18.5679 29.465C18.7966 29.5274 18.9421 29.7353 18.9421 29.9848V31.4403Z" fill="white"/>
<path d="M20.1061 28.799C17.7357 28.799 15.8228 26.8861 15.8228 24.5157C15.8228 22.1454 17.7357 20.2324 20.1061 20.2324C22.4764 20.2324 24.3894 22.1454 24.3894 24.5157C24.3894 26.8861 22.4764 28.799 20.1061 28.799ZM20.1061 21.3136C18.3387 21.3136 16.904 22.7483 16.904 24.5157C16.904 26.2831 18.3387 27.7178 20.1061 27.7178C21.8734 27.7178 23.3081 26.2831 23.3081 24.5157C23.3081 22.7483 21.8734 21.3136 20.1061 21.3136Z" fill="white"/>
<path d="M23.8701 16.2823C23.579 16.2823 23.3295 16.0328 23.3295 15.7417V1.72742H5.21904V2.74626H21.7908C22.0819 2.74626 22.3315 2.99578 22.3315 3.28688V14.806C22.3315 15.0971 22.0819 15.3467 21.7908 15.3467C21.4997 15.3467 21.2502 15.0971 21.2502 14.806V3.80669H4.67843C4.38733 3.80669 4.13782 3.55718 4.13782 3.26608V1.18681C4.15861 0.916505 4.38733 0.666992 4.67843 0.666992H23.8701C24.1612 0.666992 24.4107 0.916505 24.4107 1.2076V15.7417C24.4107 16.0328 24.1612 16.2823 23.8701 16.2823Z" fill="white"/>
<path d="M19.7116 15.326C19.4205 15.326 19.171 15.0765 19.171 14.7854V5.88608H2.61996C2.32886 5.88608 2.07935 5.63657 2.07935 5.34547V3.2662C2.07935 2.9751 2.32886 2.72559 2.61996 2.72559H21.8116C22.1027 2.72559 22.3523 2.9751 22.3523 3.2662V14.4527C22.3523 14.7438 22.1027 14.9933 21.8116 14.9933C21.5205 14.9933 21.271 14.7438 21.271 14.4527V3.80681H3.13977V4.82565H19.7116C20.0027 4.82565 20.2522 5.07516 20.2522 5.36626V14.8062C20.2522 15.0765 20.0027 15.326 19.7116 15.326Z" fill="white"/>
<path d="M14.8876 32.6667H0.540611C0.249513 32.6667 0 32.4171 0 32.126V5.34501C0 5.05392 0.249513 4.8252 0.540611 4.8252H19.7323C20.0234 4.8252 20.2729 5.07471 20.2729 5.36581V14.8057C20.2729 15.0968 20.0234 15.3463 19.7323 15.3463C19.4412 15.3463 19.1917 15.0968 19.1917 14.8057V5.88562H1.06043V31.5854H14.8876C15.1787 31.5854 15.4282 31.8349 15.4282 32.126C15.4282 32.4171 15.1995 32.6667 14.8876 32.6667Z" fill="white"/>
</svg>
