<svg width="107" height="91" viewBox="0 0 107 91" fill="none" xmlns="http://www.w3.org/2000/svg">
<path d="M1.33902 2.70174C2.07854 2.70174 2.67803 2.09693 2.67803 1.35087C2.67803 0.604802 2.07854 0 1.33902 0C0.599498 0 0 0.604802 0 1.35087C0 2.09693 0.599498 2.70174 1.33902 2.70174Z" fill="#828282"/>
<path d="M11.7469 2.70174C12.4864 2.70174 13.0859 2.09693 13.0859 1.35087C13.0859 0.604802 12.4864 0 11.7469 0C11.0074 0 10.4079 0.604802 10.4079 1.35087C10.4079 2.09693 11.0074 2.70174 11.7469 2.70174Z" fill="#828282"/>
<path d="M22.216 2.70174C22.9555 2.70174 23.555 2.09693 23.555 1.35087C23.555 0.604802 22.9555 0 22.216 0C21.4765 0 20.877 0.604802 20.877 1.35087C20.877 2.09693 21.4765 2.70174 22.216 2.70174Z" fill="#828282"/>
<path d="M32.6239 2.70174C33.3634 2.70174 33.9629 2.09693 33.9629 1.35087C33.9629 0.604802 33.3634 0 32.6239 0C31.8843 0 31.2849 0.604802 31.2849 1.35087C31.2849 2.09693 31.8843 2.70174 32.6239 2.70174Z" fill="#828282"/>
<path d="M43.0924 2.70174C43.832 2.70174 44.4315 2.09693 44.4315 1.35087C44.4315 0.604802 43.832 0 43.0924 0C42.3529 0 41.7534 0.604802 41.7534 1.35087C41.7534 2.09693 42.3529 2.70174 43.0924 2.70174Z" fill="#828282"/>
<path d="M53.4998 2.70174C54.2394 2.70174 54.8389 2.09693 54.8389 1.35087C54.8389 0.604802 54.2394 0 53.4998 0C52.7603 0 52.1608 0.604802 52.1608 1.35087C52.1608 2.09693 52.7603 2.70174 53.4998 2.70174Z" fill="#828282"/>
<path d="M63.9077 2.70174C64.6473 2.70174 65.2468 2.09693 65.2468 1.35087C65.2468 0.604802 64.6473 0 63.9077 0C63.1682 0 62.5687 0.604802 62.5687 1.35087C62.5687 2.09693 63.1682 2.70174 63.9077 2.70174Z" fill="#828282"/>
<path d="M74.3763 2.70173C75.1158 2.70173 75.7153 2.09693 75.7153 1.35086C75.7153 0.604801 75.1158 0 74.3763 0C73.6368 0 73.0373 0.604801 73.0373 1.35086C73.0373 2.09693 73.6368 2.70173 74.3763 2.70173Z" fill="#828282"/>
<path d="M84.7847 2.70173C85.5242 2.70173 86.1237 2.09693 86.1237 1.35086C86.1237 0.604801 85.5242 0 84.7847 0C84.0452 0 83.4457 0.604801 83.4457 1.35086C83.4457 2.09693 84.0452 2.70173 84.7847 2.70173Z" fill="#828282"/>
<path d="M95.2533 2.70173C95.9928 2.70173 96.5923 2.09693 96.5923 1.35086C96.5923 0.604801 95.9928 0 95.2533 0C94.5137 0 93.9142 0.604801 93.9142 1.35086C93.9142 2.09693 94.5137 2.70173 95.2533 2.70173Z" fill="#828282"/>
<path d="M105.661 2.70173C106.401 2.70173 107 2.09693 107 1.35086C107 0.604801 106.401 0 105.661 0C104.922 0 104.322 0.604801 104.322 1.35086C104.322 2.09693 104.922 2.70173 105.661 2.70173Z" fill="#828282"/>
<path d="M1.33902 12.526C2.07854 12.526 2.67803 11.9211 2.67803 11.1751C2.67803 10.429 2.07854 9.82422 1.33902 9.82422C0.599498 9.82422 0 10.429 0 11.1751C0 11.9211 0.599498 12.526 1.33902 12.526Z" fill="#828282"/>
<path d="M11.7469 12.526C12.4864 12.526 13.0859 11.9211 13.0859 11.1751C13.0859 10.429 12.4864 9.82422 11.7469 9.82422C11.0074 9.82422 10.4079 10.429 10.4079 11.1751C10.4079 11.9211 11.0074 12.526 11.7469 12.526Z" fill="#828282"/>
<path d="M22.216 12.526C22.9555 12.526 23.555 11.9211 23.555 11.1751C23.555 10.429 22.9555 9.82422 22.216 9.82422C21.4765 9.82422 20.877 10.429 20.877 11.1751C20.877 11.9211 21.4765 12.526 22.216 12.526Z" fill="#828282"/>
<path d="M32.6239 12.526C33.3634 12.526 33.9629 11.9211 33.9629 11.1751C33.9629 10.429 33.3634 9.82422 32.6239 9.82422C31.8843 9.82422 31.2849 10.429 31.2849 11.1751C31.2849 11.9211 31.8843 12.526 32.6239 12.526Z" fill="#828282"/>
<path d="M43.0924 12.526C43.832 12.526 44.4315 11.9211 44.4315 11.1751C44.4315 10.429 43.832 9.82422 43.0924 9.82422C42.3529 9.82422 41.7534 10.429 41.7534 11.1751C41.7534 11.9211 42.3529 12.526 43.0924 12.526Z" fill="#828282"/>
<path d="M53.4998 12.526C54.2394 12.526 54.8389 11.9211 54.8389 11.1751C54.8389 10.429 54.2394 9.82422 53.4998 9.82422C52.7603 9.82422 52.1608 10.429 52.1608 11.1751C52.1608 11.9211 52.7603 12.526 53.4998 12.526Z" fill="#828282"/>
<path d="M63.9077 12.526C64.6473 12.526 65.2468 11.9211 65.2468 11.1751C65.2468 10.429 64.6473 9.82422 63.9077 9.82422C63.1682 9.82422 62.5687 10.429 62.5687 11.1751C62.5687 11.9211 63.1682 12.526 63.9077 12.526Z" fill="#828282"/>
<path d="M74.3763 12.526C75.1158 12.526 75.7153 11.9211 75.7153 11.1751C75.7153 10.429 75.1158 9.82422 74.3763 9.82422C73.6368 9.82422 73.0373 10.429 73.0373 11.1751C73.0373 11.9211 73.6368 12.526 74.3763 12.526Z" fill="#828282"/>
<path d="M84.7847 12.526C85.5242 12.526 86.1237 11.9211 86.1237 11.1751C86.1237 10.429 85.5242 9.82422 84.7847 9.82422C84.0452 9.82422 83.4457 10.429 83.4457 11.1751C83.4457 11.9211 84.0452 12.526 84.7847 12.526Z" fill="#828282"/>
<path d="M95.2533 12.526C95.9928 12.526 96.5923 11.9211 96.5923 11.1751C96.5923 10.429 95.9928 9.82422 95.2533 9.82422C94.5137 9.82422 93.9142 10.429 93.9142 11.1751C93.9142 11.9211 94.5137 12.526 95.2533 12.526Z" fill="#828282"/>
<path d="M105.661 12.526C106.401 12.526 107 11.9211 107 11.1751C107 10.429 106.401 9.82422 105.661 9.82422C104.922 9.82422 104.322 10.429 104.322 11.1751C104.322 11.9211 104.922 12.526 105.661 12.526Z" fill="#828282"/>
<path d="M1.33902 22.3512C2.07854 22.3512 2.67803 21.7463 2.67803 21.0003C2.67803 20.2542 2.07854 19.6494 1.33902 19.6494C0.599498 19.6494 0 20.2542 0 21.0003C0 21.7463 0.599498 22.3512 1.33902 22.3512Z" fill="#828282"/>
<path d="M11.7469 22.3502C12.4864 22.3502 13.0859 21.7454 13.0859 20.9993C13.0859 20.2532 12.4864 19.6484 11.7469 19.6484C11.0074 19.6484 10.4079 20.2532 10.4079 20.9993C10.4079 21.7454 11.0074 22.3502 11.7469 22.3502Z" fill="#828282"/>
<path d="M22.216 22.3502C22.9555 22.3502 23.555 21.7454 23.555 20.9993C23.555 20.2532 22.9555 19.6484 22.216 19.6484C21.4765 19.6484 20.877 20.2532 20.877 20.9993C20.877 21.7454 21.4765 22.3502 22.216 22.3502Z" fill="#828282"/>
<path d="M32.6239 22.3502C33.3634 22.3502 33.9629 21.7454 33.9629 20.9993C33.9629 20.2532 33.3634 19.6484 32.6239 19.6484C31.8843 19.6484 31.2849 20.2532 31.2849 20.9993C31.2849 21.7454 31.8843 22.3502 32.6239 22.3502Z" fill="#828282"/>
<path d="M43.0924 22.3502C43.832 22.3502 44.4315 21.7454 44.4315 20.9993C44.4315 20.2532 43.832 19.6484 43.0924 19.6484C42.3529 19.6484 41.7534 20.2532 41.7534 20.9993C41.7534 21.7454 42.3529 22.3502 43.0924 22.3502Z" fill="#828282"/>
<path d="M53.4998 22.3502C54.2394 22.3502 54.8389 21.7454 54.8389 20.9993C54.8389 20.2532 54.2394 19.6484 53.4998 19.6484C52.7603 19.6484 52.1608 20.2532 52.1608 20.9993C52.1608 21.7454 52.7603 22.3502 53.4998 22.3502Z" fill="#828282"/>
<path d="M63.9077 22.3502C64.6473 22.3502 65.2468 21.7454 65.2468 20.9993C65.2468 20.2532 64.6473 19.6484 63.9077 19.6484C63.1682 19.6484 62.5687 20.2532 62.5687 20.9993C62.5687 21.7454 63.1682 22.3502 63.9077 22.3502Z" fill="#828282"/>
<path d="M74.3763 22.3502C75.1158 22.3502 75.7153 21.7454 75.7153 20.9993C75.7153 20.2532 75.1158 19.6484 74.3763 19.6484C73.6368 19.6484 73.0373 20.2532 73.0373 20.9993C73.0373 21.7454 73.6368 22.3502 74.3763 22.3502Z" fill="#828282"/>
<path d="M84.7847 22.3502C85.5242 22.3502 86.1237 21.7454 86.1237 20.9993C86.1237 20.2532 85.5242 19.6484 84.7847 19.6484C84.0452 19.6484 83.4457 20.2532 83.4457 20.9993C83.4457 21.7454 84.0452 22.3502 84.7847 22.3502Z" fill="#828282"/>
<path d="M95.2533 22.3502C95.9928 22.3502 96.5923 21.7454 96.5923 20.9993C96.5923 20.2532 95.9928 19.6484 95.2533 19.6484C94.5137 19.6484 93.9142 20.2532 93.9142 20.9993C93.9142 21.7454 94.5137 22.3502 95.2533 22.3502Z" fill="#828282"/>
<path d="M105.661 22.3502C106.401 22.3502 107 21.7454 107 20.9993C107 20.2532 106.401 19.6484 105.661 19.6484C104.922 19.6484 104.322 20.2532 104.322 20.9993C104.322 21.7454 104.922 22.3502 105.661 22.3502Z" fill="#828282"/>
<path d="M1.33902 32.1138C2.07854 32.1138 2.67803 31.509 2.67803 30.763C2.67803 30.0169 2.07854 29.4121 1.33902 29.4121C0.599498 29.4121 0 30.0169 0 30.763C0 31.509 0.599498 32.1138 1.33902 32.1138Z" fill="#828282"/>
<path d="M11.7469 32.1129C12.4864 32.1129 13.0859 31.5081 13.0859 30.762C13.0859 30.0159 12.4864 29.4111 11.7469 29.4111C11.0074 29.4111 10.4079 30.0159 10.4079 30.762C10.4079 31.5081 11.0074 32.1129 11.7469 32.1129Z" fill="#828282"/>
<path d="M22.216 32.1129C22.9555 32.1129 23.555 31.5081 23.555 30.762C23.555 30.0159 22.9555 29.4111 22.216 29.4111C21.4765 29.4111 20.877 30.0159 20.877 30.762C20.877 31.5081 21.4765 32.1129 22.216 32.1129Z" fill="#828282"/>
<path d="M32.6239 32.1129C33.3634 32.1129 33.9629 31.5081 33.9629 30.762C33.9629 30.0159 33.3634 29.4111 32.6239 29.4111C31.8843 29.4111 31.2849 30.0159 31.2849 30.762C31.2849 31.5081 31.8843 32.1129 32.6239 32.1129Z" fill="#828282"/>
<path d="M43.0924 32.1129C43.832 32.1129 44.4315 31.5081 44.4315 30.762C44.4315 30.0159 43.832 29.4111 43.0924 29.4111C42.3529 29.4111 41.7534 30.0159 41.7534 30.762C41.7534 31.5081 42.3529 32.1129 43.0924 32.1129Z" fill="#828282"/>
<path d="M53.4998 32.1129C54.2394 32.1129 54.8389 31.5081 54.8389 30.762C54.8389 30.0159 54.2394 29.4111 53.4998 29.4111C52.7603 29.4111 52.1608 30.0159 52.1608 30.762C52.1608 31.5081 52.7603 32.1129 53.4998 32.1129Z" fill="#828282"/>
<path d="M63.9077 32.1129C64.6473 32.1129 65.2468 31.5081 65.2468 30.762C65.2468 30.0159 64.6473 29.4111 63.9077 29.4111C63.1682 29.4111 62.5687 30.0159 62.5687 30.762C62.5687 31.5081 63.1682 32.1129 63.9077 32.1129Z" fill="#828282"/>
<path d="M74.3763 32.1129C75.1158 32.1129 75.7153 31.5081 75.7153 30.762C75.7153 30.0159 75.1158 29.4111 74.3763 29.4111C73.6368 29.4111 73.0373 30.0159 73.0373 30.762C73.0373 31.5081 73.6368 32.1129 74.3763 32.1129Z" fill="#828282"/>
<path d="M84.7847 32.1129C85.5242 32.1129 86.1237 31.5081 86.1237 30.762C86.1237 30.0159 85.5242 29.4111 84.7847 29.4111C84.0452 29.4111 83.4457 30.0159 83.4457 30.762C83.4457 31.5081 84.0452 32.1129 84.7847 32.1129Z" fill="#828282"/>
<path d="M95.2533 32.1129C95.9928 32.1129 96.5923 31.5081 96.5923 30.762C96.5923 30.0159 95.9928 29.4111 95.2533 29.4111C94.5137 29.4111 93.9142 30.0159 93.9142 30.762C93.9142 31.5081 94.5137 32.1129 95.2533 32.1129Z" fill="#828282"/>
<path d="M105.661 32.1129C106.401 32.1129 107 31.5081 107 30.762C107 30.0159 106.401 29.4111 105.661 29.4111C104.922 29.4111 104.322 30.0159 104.322 30.762C104.322 31.5081 104.922 32.1129 105.661 32.1129Z" fill="#828282"/>
<path d="M1.33902 41.9381C2.07854 41.9381 2.67803 41.3333 2.67803 40.5872C2.67803 39.8411 2.07854 39.2363 1.33902 39.2363C0.599498 39.2363 0 39.8411 0 40.5872C0 41.3333 0.599498 41.9381 1.33902 41.9381Z" fill="#828282"/>
<path d="M11.7469 41.9381C12.4864 41.9381 13.0859 41.3333 13.0859 40.5872C13.0859 39.8411 12.4864 39.2363 11.7469 39.2363C11.0074 39.2363 10.4079 39.8411 10.4079 40.5872C10.4079 41.3333 11.0074 41.9381 11.7469 41.9381Z" fill="#828282"/>
<path d="M22.216 41.9381C22.9555 41.9381 23.555 41.3333 23.555 40.5872C23.555 39.8411 22.9555 39.2363 22.216 39.2363C21.4765 39.2363 20.877 39.8411 20.877 40.5872C20.877 41.3333 21.4765 41.9381 22.216 41.9381Z" fill="#828282"/>
<path d="M32.6239 41.9381C33.3634 41.9381 33.9629 41.3333 33.9629 40.5872C33.9629 39.8411 33.3634 39.2363 32.6239 39.2363C31.8843 39.2363 31.2849 39.8411 31.2849 40.5872C31.2849 41.3333 31.8843 41.9381 32.6239 41.9381Z" fill="#828282"/>
<path d="M43.0924 41.9381C43.832 41.9381 44.4315 41.3333 44.4315 40.5872C44.4315 39.8411 43.832 39.2363 43.0924 39.2363C42.3529 39.2363 41.7534 39.8411 41.7534 40.5872C41.7534 41.3333 42.3529 41.9381 43.0924 41.9381Z" fill="#828282"/>
<path d="M53.4998 41.9381C54.2394 41.9381 54.8389 41.3333 54.8389 40.5872C54.8389 39.8411 54.2394 39.2363 53.4998 39.2363C52.7603 39.2363 52.1608 39.8411 52.1608 40.5872C52.1608 41.3333 52.7603 41.9381 53.4998 41.9381Z" fill="#828282"/>
<path d="M63.9077 41.9381C64.6473 41.9381 65.2468 41.3333 65.2468 40.5872C65.2468 39.8411 64.6473 39.2363 63.9077 39.2363C63.1682 39.2363 62.5687 39.8411 62.5687 40.5872C62.5687 41.3333 63.1682 41.9381 63.9077 41.9381Z" fill="#828282"/>
<path d="M74.3763 41.9381C75.1158 41.9381 75.7153 41.3333 75.7153 40.5872C75.7153 39.8411 75.1158 39.2363 74.3763 39.2363C73.6368 39.2363 73.0373 39.8411 73.0373 40.5872C73.0373 41.3333 73.6368 41.9381 74.3763 41.9381Z" fill="#828282"/>
<path d="M84.7847 41.9381C85.5242 41.9381 86.1237 41.3333 86.1237 40.5872C86.1237 39.8411 85.5242 39.2363 84.7847 39.2363C84.0452 39.2363 83.4457 39.8411 83.4457 40.5872C83.4457 41.3333 84.0452 41.9381 84.7847 41.9381Z" fill="#828282"/>
<path d="M95.2533 41.9381C95.9928 41.9381 96.5923 41.3333 96.5923 40.5872C96.5923 39.8411 95.9928 39.2363 95.2533 39.2363C94.5137 39.2363 93.9142 39.8411 93.9142 40.5872C93.9142 41.3333 94.5137 41.9381 95.2533 41.9381Z" fill="#828282"/>
<path d="M105.661 41.9381C106.401 41.9381 107 41.3333 107 40.5872C107 39.8411 106.401 39.2363 105.661 39.2363C104.922 39.2363 104.322 39.8411 104.322 40.5872C104.322 41.3333 104.922 41.9381 105.661 41.9381Z" fill="#828282"/>
<path d="M1.33902 51.7623C2.07854 51.7623 2.67803 51.1575 2.67803 50.4114C2.67803 49.6654 2.07854 49.0605 1.33902 49.0605C0.599498 49.0605 0 49.6654 0 50.4114C0 51.1575 0.599498 51.7623 1.33902 51.7623Z" fill="#828282"/>
<path d="M11.7469 51.7623C12.4864 51.7623 13.0859 51.1575 13.0859 50.4114C13.0859 49.6654 12.4864 49.0605 11.7469 49.0605C11.0074 49.0605 10.4079 49.6654 10.4079 50.4114C10.4079 51.1575 11.0074 51.7623 11.7469 51.7623Z" fill="#828282"/>
<path d="M22.216 51.7623C22.9555 51.7623 23.555 51.1575 23.555 50.4114C23.555 49.6654 22.9555 49.0605 22.216 49.0605C21.4765 49.0605 20.877 49.6654 20.877 50.4114C20.877 51.1575 21.4765 51.7623 22.216 51.7623Z" fill="#828282"/>
<path d="M32.6239 51.7623C33.3634 51.7623 33.9629 51.1575 33.9629 50.4114C33.9629 49.6654 33.3634 49.0605 32.6239 49.0605C31.8843 49.0605 31.2849 49.6654 31.2849 50.4114C31.2849 51.1575 31.8843 51.7623 32.6239 51.7623Z" fill="#828282"/>
<path d="M43.0924 51.7623C43.832 51.7623 44.4315 51.1575 44.4315 50.4114C44.4315 49.6654 43.832 49.0605 43.0924 49.0605C42.3529 49.0605 41.7534 49.6654 41.7534 50.4114C41.7534 51.1575 42.3529 51.7623 43.0924 51.7623Z" fill="#828282"/>
<path d="M53.4998 51.7623C54.2394 51.7623 54.8389 51.1575 54.8389 50.4114C54.8389 49.6654 54.2394 49.0605 53.4998 49.0605C52.7603 49.0605 52.1608 49.6654 52.1608 50.4114C52.1608 51.1575 52.7603 51.7623 53.4998 51.7623Z" fill="#828282"/>
<path d="M63.9077 51.7623C64.6473 51.7623 65.2468 51.1575 65.2468 50.4114C65.2468 49.6654 64.6473 49.0605 63.9077 49.0605C63.1682 49.0605 62.5687 49.6654 62.5687 50.4114C62.5687 51.1575 63.1682 51.7623 63.9077 51.7623Z" fill="#828282"/>
<path d="M74.3763 51.7623C75.1158 51.7623 75.7153 51.1575 75.7153 50.4114C75.7153 49.6654 75.1158 49.0605 74.3763 49.0605C73.6368 49.0605 73.0373 49.6654 73.0373 50.4114C73.0373 51.1575 73.6368 51.7623 74.3763 51.7623Z" fill="#828282"/>
<path d="M84.7847 51.7623C85.5242 51.7623 86.1237 51.1575 86.1237 50.4114C86.1237 49.6654 85.5242 49.0605 84.7847 49.0605C84.0452 49.0605 83.4457 49.6654 83.4457 50.4114C83.4457 51.1575 84.0452 51.7623 84.7847 51.7623Z" fill="#828282"/>
<path d="M95.2533 51.7623C95.9928 51.7623 96.5923 51.1575 96.5923 50.4114C96.5923 49.6654 95.9928 49.0605 95.2533 49.0605C94.5137 49.0605 93.9142 49.6654 93.9142 50.4114C93.9142 51.1575 94.5137 51.7623 95.2533 51.7623Z" fill="#828282"/>
<path d="M105.661 51.7623C106.401 51.7623 107 51.1575 107 50.4114C107 49.6654 106.401 49.0605 105.661 49.0605C104.922 49.0605 104.322 49.6654 104.322 50.4114C104.322 51.1575 104.922 51.7623 105.661 51.7623Z" fill="#828282"/>
<path d="M1.33902 61.5865C2.07854 61.5865 2.67803 60.9817 2.67803 60.2356C2.67803 59.4896 2.07854 58.8848 1.33902 58.8848C0.599498 58.8848 0 59.4896 0 60.2356C0 60.9817 0.599498 61.5865 1.33902 61.5865Z" fill="#828282"/>
<path d="M11.7469 61.5865C12.4864 61.5865 13.0859 60.9817 13.0859 60.2356C13.0859 59.4896 12.4864 58.8848 11.7469 58.8848C11.0074 58.8848 10.4079 59.4896 10.4079 60.2356C10.4079 60.9817 11.0074 61.5865 11.7469 61.5865Z" fill="#828282"/>
<path d="M22.216 61.5865C22.9555 61.5865 23.555 60.9817 23.555 60.2356C23.555 59.4896 22.9555 58.8848 22.216 58.8848C21.4765 58.8848 20.877 59.4896 20.877 60.2356C20.877 60.9817 21.4765 61.5865 22.216 61.5865Z" fill="#828282"/>
<path d="M32.6239 61.5865C33.3634 61.5865 33.9629 60.9817 33.9629 60.2356C33.9629 59.4896 33.3634 58.8848 32.6239 58.8848C31.8843 58.8848 31.2849 59.4896 31.2849 60.2356C31.2849 60.9817 31.8843 61.5865 32.6239 61.5865Z" fill="#828282"/>
<path d="M43.0924 61.5865C43.832 61.5865 44.4315 60.9817 44.4315 60.2356C44.4315 59.4896 43.832 58.8848 43.0924 58.8848C42.3529 58.8848 41.7534 59.4896 41.7534 60.2356C41.7534 60.9817 42.3529 61.5865 43.0924 61.5865Z" fill="#828282"/>
<path d="M53.4998 61.5865C54.2394 61.5865 54.8389 60.9817 54.8389 60.2356C54.8389 59.4896 54.2394 58.8848 53.4998 58.8848C52.7603 58.8848 52.1608 59.4896 52.1608 60.2356C52.1608 60.9817 52.7603 61.5865 53.4998 61.5865Z" fill="#828282"/>
<path d="M63.9077 61.5865C64.6473 61.5865 65.2468 60.9817 65.2468 60.2356C65.2468 59.4896 64.6473 58.8848 63.9077 58.8848C63.1682 58.8848 62.5687 59.4896 62.5687 60.2356C62.5687 60.9817 63.1682 61.5865 63.9077 61.5865Z" fill="#828282"/>
<path d="M74.3763 61.5865C75.1158 61.5865 75.7153 60.9817 75.7153 60.2356C75.7153 59.4896 75.1158 58.8848 74.3763 58.8848C73.6368 58.8848 73.0373 59.4896 73.0373 60.2356C73.0373 60.9817 73.6368 61.5865 74.3763 61.5865Z" fill="#828282"/>
<path d="M84.7847 61.5865C85.5242 61.5865 86.1237 60.9817 86.1237 60.2356C86.1237 59.4896 85.5242 58.8848 84.7847 58.8848C84.0452 58.8848 83.4457 59.4896 83.4457 60.2356C83.4457 60.9817 84.0452 61.5865 84.7847 61.5865Z" fill="#828282"/>
<path d="M95.2533 61.5865C95.9928 61.5865 96.5923 60.9817 96.5923 60.2356C96.5923 59.4896 95.9928 58.8848 95.2533 58.8848C94.5137 58.8848 93.9142 59.4896 93.9142 60.2356C93.9142 60.9817 94.5137 61.5865 95.2533 61.5865Z" fill="#828282"/>
<path d="M105.661 61.5865C106.401 61.5865 107 60.9817 107 60.2356C107 59.4896 106.401 58.8848 105.661 58.8848C104.922 58.8848 104.322 59.4896 104.322 60.2356C104.322 60.9817 104.922 61.5865 105.661 61.5865Z" fill="#828282"/>
<path d="M1.33902 71.4127C2.07854 71.4127 2.67803 70.8079 2.67803 70.0618C2.67803 69.3157 2.07854 68.7109 1.33902 68.7109C0.599498 68.7109 0 69.3157 0 70.0618C0 70.8079 0.599498 71.4127 1.33902 71.4127Z" fill="#828282"/>
<path d="M11.7469 71.4127C12.4864 71.4127 13.0859 70.8079 13.0859 70.0618C13.0859 69.3157 12.4864 68.7109 11.7469 68.7109C11.0074 68.7109 10.4079 69.3157 10.4079 70.0618C10.4079 70.8079 11.0074 71.4127 11.7469 71.4127Z" fill="#828282"/>
<path d="M22.216 71.4127C22.9555 71.4127 23.555 70.8079 23.555 70.0618C23.555 69.3157 22.9555 68.7109 22.216 68.7109C21.4765 68.7109 20.877 69.3157 20.877 70.0618C20.877 70.8079 21.4765 71.4127 22.216 71.4127Z" fill="#828282"/>
<path d="M32.6239 71.4127C33.3634 71.4127 33.9629 70.8079 33.9629 70.0618C33.9629 69.3157 33.3634 68.7109 32.6239 68.7109C31.8843 68.7109 31.2849 69.3157 31.2849 70.0618C31.2849 70.8079 31.8843 71.4127 32.6239 71.4127Z" fill="#828282"/>
<path d="M43.0924 71.4127C43.832 71.4127 44.4315 70.8079 44.4315 70.0618C44.4315 69.3157 43.832 68.7109 43.0924 68.7109C42.3529 68.7109 41.7534 69.3157 41.7534 70.0618C41.7534 70.8079 42.3529 71.4127 43.0924 71.4127Z" fill="#828282"/>
<path d="M53.4998 71.4127C54.2394 71.4127 54.8389 70.8079 54.8389 70.0618C54.8389 69.3157 54.2394 68.7109 53.4998 68.7109C52.7603 68.7109 52.1608 69.3157 52.1608 70.0618C52.1608 70.8079 52.7603 71.4127 53.4998 71.4127Z" fill="#828282"/>
<path d="M63.9077 71.4127C64.6473 71.4127 65.2468 70.8079 65.2468 70.0618C65.2468 69.3157 64.6473 68.7109 63.9077 68.7109C63.1682 68.7109 62.5687 69.3157 62.5687 70.0618C62.5687 70.8079 63.1682 71.4127 63.9077 71.4127Z" fill="#828282"/>
<path d="M74.3763 71.4127C75.1158 71.4127 75.7153 70.8079 75.7153 70.0618C75.7153 69.3157 75.1158 68.7109 74.3763 68.7109C73.6368 68.7109 73.0373 69.3157 73.0373 70.0618C73.0373 70.8079 73.6368 71.4127 74.3763 71.4127Z" fill="#828282"/>
<path d="M84.7847 71.4127C85.5242 71.4127 86.1237 70.8079 86.1237 70.0618C86.1237 69.3157 85.5242 68.7109 84.7847 68.7109C84.0452 68.7109 83.4457 69.3157 83.4457 70.0618C83.4457 70.8079 84.0452 71.4127 84.7847 71.4127Z" fill="#828282"/>
<path d="M95.2533 71.4127C95.9928 71.4127 96.5923 70.8079 96.5923 70.0618C96.5923 69.3157 95.9928 68.7109 95.2533 68.7109C94.5137 68.7109 93.9142 69.3157 93.9142 70.0618C93.9142 70.8079 94.5137 71.4127 95.2533 71.4127Z" fill="#828282"/>
<path d="M105.661 71.4127C106.401 71.4127 107 70.8079 107 70.0618C107 69.3157 106.401 68.7109 105.661 68.7109C104.922 68.7109 104.322 69.3157 104.322 70.0618C104.322 70.8079 104.922 71.4127 105.661 71.4127Z" fill="#828282"/>
<path d="M1.33902 81.1754C2.07854 81.1754 2.67803 80.5706 2.67803 79.8245C2.67803 79.0784 2.07854 78.4736 1.33902 78.4736C0.599498 78.4736 0 79.0784 0 79.8245C0 80.5706 0.599498 81.1754 1.33902 81.1754Z" fill="#828282"/>
<path d="M11.7469 81.1744C12.4864 81.1744 13.0859 80.5696 13.0859 79.8235C13.0859 79.0775 12.4864 78.4727 11.7469 78.4727C11.0074 78.4727 10.4079 79.0775 10.4079 79.8235C10.4079 80.5696 11.0074 81.1744 11.7469 81.1744Z" fill="#828282"/>
<path d="M22.216 81.1744C22.9555 81.1744 23.555 80.5696 23.555 79.8235C23.555 79.0775 22.9555 78.4727 22.216 78.4727C21.4765 78.4727 20.877 79.0775 20.877 79.8235C20.877 80.5696 21.4765 81.1744 22.216 81.1744Z" fill="#828282"/>
<path d="M32.6239 81.1744C33.3634 81.1744 33.9629 80.5696 33.9629 79.8235C33.9629 79.0775 33.3634 78.4727 32.6239 78.4727C31.8843 78.4727 31.2849 79.0775 31.2849 79.8235C31.2849 80.5696 31.8843 81.1744 32.6239 81.1744Z" fill="#828282"/>
<path d="M43.0924 81.1744C43.832 81.1744 44.4315 80.5696 44.4315 79.8235C44.4315 79.0775 43.832 78.4727 43.0924 78.4727C42.3529 78.4727 41.7534 79.0775 41.7534 79.8235C41.7534 80.5696 42.3529 81.1744 43.0924 81.1744Z" fill="#828282"/>
<path d="M53.4998 81.1744C54.2394 81.1744 54.8389 80.5696 54.8389 79.8235C54.8389 79.0775 54.2394 78.4727 53.4998 78.4727C52.7603 78.4727 52.1608 79.0775 52.1608 79.8235C52.1608 80.5696 52.7603 81.1744 53.4998 81.1744Z" fill="#828282"/>
<path d="M63.9077 81.1744C64.6473 81.1744 65.2468 80.5696 65.2468 79.8235C65.2468 79.0775 64.6473 78.4727 63.9077 78.4727C63.1682 78.4727 62.5687 79.0775 62.5687 79.8235C62.5687 80.5696 63.1682 81.1744 63.9077 81.1744Z" fill="#828282"/>
<path d="M74.3763 81.1744C75.1158 81.1744 75.7153 80.5696 75.7153 79.8235C75.7153 79.0775 75.1158 78.4727 74.3763 78.4727C73.6368 78.4727 73.0373 79.0775 73.0373 79.8235C73.0373 80.5696 73.6368 81.1744 74.3763 81.1744Z" fill="#828282"/>
<path d="M84.7847 81.1744C85.5242 81.1744 86.1237 80.5696 86.1237 79.8235C86.1237 79.0775 85.5242 78.4727 84.7847 78.4727C84.0452 78.4727 83.4457 79.0775 83.4457 79.8235C83.4457 80.5696 84.0452 81.1744 84.7847 81.1744Z" fill="#828282"/>
<path d="M95.2533 81.1744C95.9928 81.1744 96.5923 80.5696 96.5923 79.8235C96.5923 79.0775 95.9928 78.4727 95.2533 78.4727C94.5137 78.4727 93.9142 79.0775 93.9142 79.8235C93.9142 80.5696 94.5137 81.1744 95.2533 81.1744Z" fill="#828282"/>
<path d="M105.661 81.1744C106.401 81.1744 107 80.5696 107 79.8235C107 79.0775 106.401 78.4727 105.661 78.4727C104.922 78.4727 104.322 79.0775 104.322 79.8235C104.322 80.5696 104.922 81.1744 105.661 81.1744Z" fill="#828282"/>
<path d="M1.33902 90.9996C2.07854 90.9996 2.67803 90.3948 2.67803 89.6487C2.67803 88.9027 2.07854 88.2979 1.33902 88.2979C0.599498 88.2979 0 88.9027 0 89.6487C0 90.3948 0.599498 90.9996 1.33902 90.9996Z" fill="#828282"/>
<path d="M11.7469 90.9996C12.4864 90.9996 13.0859 90.3948 13.0859 89.6487C13.0859 88.9027 12.4864 88.2979 11.7469 88.2979C11.0074 88.2979 10.4079 88.9027 10.4079 89.6487C10.4079 90.3948 11.0074 90.9996 11.7469 90.9996Z" fill="#828282"/>
<path d="M22.216 90.9996C22.9555 90.9996 23.555 90.3948 23.555 89.6487C23.555 88.9027 22.9555 88.2979 22.216 88.2979C21.4765 88.2979 20.877 88.9027 20.877 89.6487C20.877 90.3948 21.4765 90.9996 22.216 90.9996Z" fill="#828282"/>
<path d="M32.6239 90.9996C33.3634 90.9996 33.9629 90.3948 33.9629 89.6487C33.9629 88.9027 33.3634 88.2979 32.6239 88.2979C31.8843 88.2979 31.2849 88.9027 31.2849 89.6487C31.2849 90.3948 31.8843 90.9996 32.6239 90.9996Z" fill="#828282"/>
<path d="M43.0924 90.9996C43.832 90.9996 44.4315 90.3948 44.4315 89.6487C44.4315 88.9027 43.832 88.2979 43.0924 88.2979C42.3529 88.2979 41.7534 88.9027 41.7534 89.6487C41.7534 90.3948 42.3529 90.9996 43.0924 90.9996Z" fill="#828282"/>
<path d="M53.4999 90.9996C54.2394 90.9996 54.8389 90.3948 54.8389 89.6487C54.8389 88.9027 54.2394 88.2979 53.4999 88.2979C52.7603 88.2979 52.1608 88.9027 52.1608 89.6487C52.1608 90.3948 52.7603 90.9996 53.4999 90.9996Z" fill="#828282"/>
<path d="M63.9077 90.9996C64.6473 90.9996 65.2468 90.3948 65.2468 89.6487C65.2468 88.9027 64.6473 88.2979 63.9077 88.2979C63.1682 88.2979 62.5687 88.9027 62.5687 89.6487C62.5687 90.3948 63.1682 90.9996 63.9077 90.9996Z" fill="#828282"/>
<path d="M74.3763 90.9996C75.1158 90.9996 75.7153 90.3948 75.7153 89.6487C75.7153 88.9027 75.1158 88.2979 74.3763 88.2979C73.6368 88.2979 73.0373 88.9027 73.0373 89.6487C73.0373 90.3948 73.6368 90.9996 74.3763 90.9996Z" fill="#828282"/>
<path d="M84.7847 90.9996C85.5242 90.9996 86.1237 90.3948 86.1237 89.6487C86.1237 88.9027 85.5242 88.2979 84.7847 88.2979C84.0452 88.2979 83.4457 88.9027 83.4457 89.6487C83.4457 90.3948 84.0452 90.9996 84.7847 90.9996Z" fill="#828282"/>
<path d="M95.2533 90.9996C95.9928 90.9996 96.5923 90.3948 96.5923 89.6487C96.5923 88.9027 95.9928 88.2979 95.2533 88.2979C94.5137 88.2979 93.9142 88.9027 93.9142 89.6487C93.9142 90.3948 94.5137 90.9996 95.2533 90.9996Z" fill="#828282"/>
<path d="M105.661 90.9996C106.401 90.9996 107 90.3948 107 89.6487C107 88.9027 106.401 88.2979 105.661 88.2979C104.922 88.2979 104.322 88.9027 104.322 89.6487C104.322 90.3948 104.922 90.9996 105.661 90.9996Z" fill="#828282"/>
</svg>
