<svg width="12" height="12" viewBox="0 0 12 12" fill="none" xmlns="http://www.w3.org/2000/svg">
<path d="M10.9455 1.42969H1.05488C0.892527 1.42969 0.740535 1.4696 0.603027 1.53539L5.97675 6.90912L7.18118 5.75161C7.18118 5.75161 7.18127 5.75149 7.1813 5.75145C7.18132 5.7514 7.18141 5.75135 7.18141 5.75135L11.3975 1.53548C11.26 1.46965 11.1079 1.42969 10.9455 1.42969Z" fill="#155C95"/>
<path d="M11.8943 2.03223L7.92676 5.99959L11.8942 9.96702C11.96 9.82951 11.9999 9.67752 11.9999 9.51516V2.48391C11.9999 2.32166 11.9601 2.16969 11.8943 2.03223Z" fill="#155C95"/>
<path d="M0.105703 2.03223C0.0399141 2.16973 0 2.32173 0 2.48408V9.51533C0 9.67759 0.0398672 9.8296 0.105609 9.96706L4.07318 5.9997L0.105703 2.03223Z" fill="#155C95"/>
<path d="M7.42961 6.49712L6.22501 7.65477C6.15634 7.72344 6.06639 7.75777 5.97646 7.75777C5.88653 7.75777 5.79655 7.72344 5.7279 7.65477L4.57018 6.49707L0.602539 10.4645C0.74007 10.5303 0.892157 10.5702 1.05456 10.5702H10.9452C11.1075 10.5702 11.2595 10.5303 11.397 10.4645L7.42961 6.49712Z" fill="#155C95"/>
</svg>
