<svg width="10" height="10" viewBox="0 0 10 10" fill="none" xmlns="http://www.w3.org/2000/svg">
<path d="M9.87781 9.28964L7.03409 6.44591C7.58493 5.76551 7.91658 4.90093 7.91658 3.95928C7.91658 1.7768 6.14076 0.000976562 3.95828 0.000976562C1.7758 0.000976562 0 1.77678 0 3.95926C0 6.14174 1.77582 7.91756 3.9583 7.91756C4.89995 7.91756 5.76453 7.5859 6.44494 7.03507L9.28866 9.87879C9.36991 9.96004 9.47657 10.0009 9.58325 10.0009C9.68992 10.0009 9.79658 9.96004 9.87783 9.87879C10.0407 9.71588 10.0407 9.45254 9.87781 9.28964ZM3.9583 7.08423C2.23498 7.08423 0.833332 5.68258 0.833332 3.95926C0.833332 2.23593 2.23498 0.834289 3.9583 0.834289C5.68162 0.834289 7.08327 2.23593 7.08327 3.95926C7.08327 5.68258 5.6816 7.08423 3.9583 7.08423Z" fill="white"/>
</svg>
