<svg width="14" height="14" viewBox="0 0 14 14" fill="none" xmlns="http://www.w3.org/2000/svg">
<path d="M1.68268 0.0117188C0.752805 0.0117188 0.000150441 0.765727 0 1.69349C0 2.62216 0.752654 3.37602 1.68283 3.37602C2.61044 3.37602 3.36415 2.62216 3.36415 1.69349C3.36415 0.765576 2.61029 0.0117188 1.68268 0.0117188Z" fill="#061622"/>
<path d="M3.13299 4.65234H0.231445V13.9878H3.13299V4.65234Z" fill="#061622"/>
<path d="M10.5197 4.41992C9.10826 4.41992 8.16184 5.19379 7.77445 5.92764H7.73564V4.65205H4.95279H4.95264V13.9873H7.85163V9.36912C7.85163 8.1516 8.08346 6.9723 9.59298 6.9723C11.0808 6.9723 11.1007 8.36478 11.1007 9.4472V13.9872H14.0001V8.8668C14.0001 6.35338 13.4578 4.41992 10.5197 4.41992Z" fill="#061622"/>
</svg>
