<svg width="60" height="60" viewBox="0 0 60 60" fill="none" xmlns="http://www.w3.org/2000/svg">
<circle cx="30" cy="30" r="30" fill="#009344"/>
<path d="M30.0397 15.4189C24.8606 15.4189 20.6304 19.6294 20.6304 24.8282C20.6304 30.0073 24.8408 34.2375 30.0397 34.2375C35.2187 34.2375 39.449 30.0271 39.449 24.8282C39.449 19.6294 35.2187 15.4189 30.0397 15.4189ZM30.0397 33.0317C25.5129 33.0317 21.8362 29.355 21.8362 24.8282C21.8362 20.3015 25.5129 16.6248 30.0397 16.6248C34.5664 16.6248 38.2432 20.3015 38.2432 24.8282C38.2432 29.355 34.5664 33.0317 30.0397 33.0317Z" fill="white"/>
<path d="M32.806 27.4764L32.5416 26C32.5416 25.9339 32.5636 25.8899 32.5857 25.8458L33.6654 24.7881C33.9298 24.5237 34.0179 24.1271 33.9078 23.7966C33.7976 23.4661 33.4891 23.2016 33.1145 23.1355L31.6161 22.9152C31.5721 22.8932 31.506 22.8711 31.4839 22.827L30.8229 21.4829C30.6466 21.1524 30.3161 20.9541 29.9635 20.9541C29.589 20.9541 29.2584 21.1524 29.1042 21.4829L28.4431 22.827C28.4211 22.8711 28.377 22.9152 28.3109 22.9152L26.8126 23.1355C26.438 23.1796 26.1515 23.444 26.0193 23.7966C25.8871 24.1491 26.0193 24.5458 26.2838 24.8102L27.3634 25.8678C27.4075 25.9119 27.4075 25.956 27.4075 26.0221L27.1431 27.4984C27.077 27.851 27.2312 28.2255 27.5397 28.4459C27.8482 28.6662 28.2228 28.7103 28.5533 28.512L29.8974 27.8069C29.9415 27.7849 30.0076 27.7849 30.0517 27.8069L31.3958 28.512C31.528 28.6001 31.6822 28.6222 31.8585 28.6222C32.0568 28.6222 32.2552 28.5561 32.4314 28.4239C32.6958 28.2035 32.8501 27.851 32.806 27.4764ZM31.7484 26.1323L32.0128 27.6086C32.0348 27.6967 31.9907 27.7628 31.9467 27.7628C31.9246 27.7849 31.8585 27.8289 31.7704 27.7849L30.4263 27.0797C30.2941 27.0136 30.1398 26.9696 29.9856 26.9696C29.8313 26.9696 29.6771 27.0136 29.5228 27.0797L28.1787 27.7849C28.0906 27.8289 28.0465 27.7849 28.0025 27.7628C27.9584 27.7408 27.9143 27.6967 27.9364 27.6086L28.2008 26.1323C28.2448 25.8238 28.1567 25.4932 27.9143 25.2729L26.8346 24.2152C26.7685 24.1491 26.7905 24.083 26.7905 24.039C26.8126 23.9949 26.8346 23.9508 26.9228 23.9288L28.4211 23.7084C28.7296 23.6644 29.0161 23.444 29.1483 23.1796L29.8093 21.8355C29.8534 21.7474 29.9195 21.7473 29.9635 21.7473C30.0076 21.7473 30.0737 21.7694 30.1178 21.8355L30.7788 23.1796C30.911 23.4661 31.1975 23.6644 31.506 23.7084L33.0043 23.9288C33.0925 23.9508 33.1145 23.9949 33.1365 24.039C33.1586 24.083 33.1586 24.1271 33.0925 24.2152L32.0128 25.2729C31.7924 25.5153 31.6822 25.8238 31.7484 26.1323Z" fill="white"/>
<path d="M43.3039 25.9553C44.5492 25.303 45.2015 23.9785 44.9446 22.5948C44.7074 21.2111 43.6399 20.1832 42.2364 19.9855C41.6236 19.9064 41.0899 19.5506 40.7934 19.0169C40.4771 18.4832 40.4376 17.8506 40.6748 17.2774C41.2085 15.9727 40.8527 14.5495 39.7655 13.6402C38.6783 12.7309 37.2155 12.632 36.0294 13.3832C35.4957 13.7192 34.8632 13.7785 34.2899 13.5611C33.7167 13.3437 33.262 12.889 33.0841 12.296C32.6492 10.9518 31.4632 10.082 30.0597 10.082C28.6562 10.082 27.4504 10.9518 27.0353 12.296C26.8376 12.889 26.4027 13.3437 25.8295 13.5611C25.2562 13.7785 24.6236 13.6995 24.0899 13.3832C22.9039 12.632 21.4213 12.7309 20.3539 13.6402C19.2667 14.5495 18.9108 15.9727 19.4446 17.2774C19.6818 17.8506 19.6422 18.4832 19.326 19.0169C19.0097 19.5506 18.4957 19.9064 17.8829 19.9855C16.4795 20.1832 15.4318 21.1913 15.1748 22.5948C14.9376 23.9785 15.5702 25.303 16.8155 25.9553C17.369 26.2518 17.7446 26.7657 17.8434 27.3785C17.9422 27.9913 17.7841 28.6041 17.369 29.0588C16.4202 30.1064 16.262 31.5692 16.9736 32.7948C17.6853 34.0204 19.0295 34.6134 20.3934 34.3169C21.0062 34.1785 21.619 34.3367 22.0934 34.732C22.1527 34.7716 22.1922 34.8309 22.2318 34.8704L16.9934 46.039C16.8946 46.2564 16.9341 46.5134 17.0922 46.6913C17.2504 46.8692 17.4876 46.9483 17.7248 46.8692L22.2515 45.4657L24.0899 49.8541C24.1888 50.0716 24.3864 50.2099 24.6236 50.2297H24.6434C24.8806 50.2297 25.0783 50.0913 25.1771 49.8937L30.969 37.875C31.226 38.0134 31.4434 38.1913 31.6411 38.4285C32.5108 39.5355 33.9143 39.9506 35.2388 39.4762C36.3457 39.0809 37.0771 38.1716 37.2748 37.0646L41.1492 45.3471L37.3934 44.1809C37.0969 44.082 36.7806 44.2402 36.662 44.5169L35.1004 48.2332L31.3841 41.2157C31.226 40.9192 30.8701 40.8204 30.5736 40.9588C30.2771 41.1169 30.1783 41.4727 30.3167 41.7692L34.626 49.8937C34.7248 50.0913 34.9422 50.2099 35.1597 50.2099H35.1794C35.4167 50.1902 35.6143 50.0518 35.7132 49.8344L37.5515 45.446L42.0783 46.8495C42.2957 46.9285 42.5527 46.8495 42.7108 46.6716C42.869 46.4937 42.9085 46.2367 42.8097 46.0192L37.6899 35.0878C37.7887 34.9495 37.9074 34.8309 38.026 34.7123C38.5004 34.3169 39.1132 34.1588 39.726 34.2971C41.1097 34.5937 42.4539 34.0006 43.1457 32.7751C43.8574 31.5495 43.6992 30.0867 42.7504 29.039C42.3353 28.5844 42.1574 27.9716 42.276 27.3588C42.3946 26.7657 42.7701 26.2518 43.3039 25.9553ZM24.6632 48.1541L23.1411 44.4971C23.0225 44.2204 22.7062 44.0623 22.4097 44.1611L18.6539 45.3274L22.7853 36.4913C22.805 37.8355 23.5957 38.982 24.8806 39.4564C25.2562 39.5948 25.6318 39.6541 25.9876 39.6541C26.9364 39.6541 27.8457 39.2192 28.4783 38.4088C28.7946 38.0134 29.2294 37.7564 29.7236 37.6774L24.6632 48.1541ZM41.8806 29.8495C42.5922 30.6402 42.4736 31.5692 42.1376 32.182C41.7818 32.7948 41.0504 33.3483 40.0027 33.1309C39.0341 32.9134 38.0457 33.1704 37.2946 33.803C36.9783 34.0797 36.7213 34.396 36.5434 34.7518C36.5434 34.7716 36.5236 34.7716 36.5236 34.7913C36.2667 35.2657 36.1481 35.8192 36.1678 36.3727C36.2074 37.4402 35.5155 38.0727 34.8632 38.3099C34.2108 38.5471 33.262 38.5076 32.6097 37.6576C31.9969 36.8669 31.0876 36.432 30.0992 36.432C29.1108 36.432 28.2015 36.8867 27.5888 37.6576C26.9364 38.5076 25.9876 38.5471 25.3353 38.3099C24.6829 38.0727 23.9911 37.4402 24.0306 36.3727C24.0701 35.3844 23.655 34.4553 22.9039 33.8227C22.3306 33.3285 21.5992 33.0716 20.8678 33.0716C20.6504 33.0716 20.4132 33.0913 20.1957 33.1506C19.1481 33.3681 18.3969 32.8146 18.0608 32.2018C17.705 31.589 17.5864 30.6599 18.3178 29.8692C18.9899 29.1378 19.2667 28.1495 19.0888 27.1809C18.9108 26.2123 18.3178 25.382 17.4481 24.9076C16.4992 24.4134 16.3015 23.4844 16.4202 22.7925C16.5388 22.1006 17.0527 21.3099 18.1004 21.1716C19.0888 21.0332 19.919 20.4599 20.4329 19.6099C20.9271 18.7599 21.0062 17.732 20.6306 16.8227C20.2353 15.8344 20.6504 15.0041 21.2039 14.5495C21.7376 14.0948 22.6469 13.8181 23.5364 14.3913C24.3667 14.9251 25.3946 15.0239 26.3236 14.6878C27.2527 14.3518 27.9643 13.6204 28.2608 12.6716C28.5969 11.6634 29.4469 11.2878 30.1585 11.2878C30.8504 11.2878 31.7201 11.6437 32.0562 12.6716C32.3527 13.6204 33.0643 14.3518 33.9934 14.6878C34.9225 15.0239 35.9306 14.9251 36.7806 14.3913C37.6899 13.8181 38.5794 14.0948 39.1132 14.5495C39.6469 15.0041 40.0818 15.8344 39.6864 16.8227C39.3108 17.732 39.3899 18.7599 39.8841 19.6099C40.3783 20.4599 41.2283 21.0332 42.2167 21.1716C43.2841 21.3099 43.7783 22.1006 43.8969 22.7925C44.0155 23.4844 43.8178 24.3937 42.869 24.9076C41.9992 25.3623 41.3864 26.1925 41.2283 27.1809C40.9318 28.1495 41.2085 29.1181 41.8806 29.8495Z" fill="white"/>
</svg>
