<svg width="60" height="60" viewBox="0 0 60 60" fill="none" xmlns="http://www.w3.org/2000/svg">
<circle cx="30" cy="30" r="29.5" stroke="#155C95"/>
<path d="M34.5274 24.0458H29.5785V23.0899C29.5785 21.0983 28.147 19.4852 26.3884 19.4852H24.4456C22.687 19.4852 21.2555 21.0983 21.2555 23.0899V24.0458H18.4947H17.2269C16.9201 24.0458 16.6747 24.2649 16.6338 24.5636L14.3639 41.4518H13.0551L12.2371 20.2221H20.9283C21.2555 20.2221 21.5418 19.9632 21.5418 19.6246C21.5418 19.3059 21.2759 19.0271 20.9283 19.0271H19.9671V18.5293C19.9671 17.1551 18.9037 16 17.5745 16C16.2453 16 15.1614 17.1551 15.1614 18.5492V19.047H11.6032H10.7443C10.4171 19.047 10.1512 19.3059 10.1308 19.6246L9.33325 42.0294C9.33325 42.1887 9.3946 42.348 9.49685 42.4675C9.61955 42.587 9.7627 42.6468 9.9263 42.6468H12.4416H14.8751H18.5561H36.1429C36.3065 42.6468 36.4701 42.5671 36.5928 42.4476C36.7155 42.3281 36.7564 42.1688 36.7564 41.9895L35.1204 24.5835C35.1 24.2848 34.8341 24.0458 34.5274 24.0458ZM16.3884 18.5492C16.3884 17.7924 16.9201 17.175 17.5745 17.175C18.2289 17.175 18.7606 17.7924 18.7606 18.5492V19.047H16.3884V18.5492ZM28.372 23.1098V24.0657H24.4047V23.1098C24.4047 21.7755 25.2841 20.6801 26.3884 20.6801C27.4722 20.6801 28.372 21.7555 28.372 23.1098ZM22.4825 23.1098C22.4825 21.9746 23.1164 21.0187 23.9957 20.7598C23.5049 21.3971 23.2186 22.2136 23.2186 23.1098V24.0657H22.4825V23.1098ZM11.1737 24.2848L11.8281 41.4717H10.5602L11.1737 24.2848ZM17.7586 25.2208H17.8813L17.9426 41.4518H15.5704L17.7586 25.2208ZM19.1696 41.4518L19.1082 25.2208H33.9752L35.4885 41.4518H19.1696Z" fill="#155C95"/>
<path d="M48.7197 31.9721H44.7933V29.1641H46.2044C46.5316 29.1641 46.8179 28.9052 46.8179 28.5666V26.2166C46.8179 25.898 46.552 25.6191 46.2044 25.6191H36.7157C36.3885 25.6191 36.1022 25.878 36.1022 26.2166C36.1022 26.5352 36.368 26.8141 36.7157 26.8141H45.5909V27.9891H37.1247C36.7975 27.9891 36.5112 28.248 36.5112 28.5865C36.5112 28.9052 36.777 29.184 37.1247 29.184H43.5868V31.9921H37.4519C37.1247 31.9921 36.8384 32.251 36.8384 32.5895C36.8384 32.9082 37.1042 33.187 37.4519 33.187H48.1062V34.3222H37.8609C37.5337 34.3222 37.2474 34.5811 37.2474 34.9196C37.2474 35.2383 37.5132 35.5171 37.8609 35.5171H46.1021V41.4718H38.5766C38.2494 41.4718 37.9631 41.7307 37.9631 42.0692C37.9631 42.3879 38.229 42.6667 38.5766 42.6667H46.6952C47.0224 42.6667 47.3087 42.4078 47.3087 42.0692V35.4972H48.7197C49.0469 35.4972 49.3332 35.2383 49.3332 34.8997V32.5696C49.3127 32.231 49.0469 31.9721 48.7197 31.9721Z" fill="#155C95"/>
</svg>
