<svg width="60" height="60" viewBox="0 0 60 60" fill="none" xmlns="http://www.w3.org/2000/svg">
<circle cx="30" cy="30" r="29.5" stroke="#155C95"/>
<path d="M34.9143 38.2729L39.5795 33.7142C39.7214 33.5723 39.7746 33.3594 39.7214 33.1466C39.6505 32.9514 39.4908 32.8095 39.2779 32.7741L32.8212 31.8339L29.9298 25.9803C29.8411 25.7851 29.646 25.6787 29.4332 25.6787C29.2203 25.6787 29.0429 25.8029 28.9365 25.9803L26.0451 31.8339L19.5884 32.7741C19.3755 32.8095 19.2159 32.9514 19.1449 33.1466C19.074 33.3417 19.1272 33.5545 19.2868 33.7142L24.0052 38.2729L22.9054 44.6942C22.87 44.9071 22.9587 45.1022 23.1183 45.2264C23.2779 45.3505 23.5085 45.3683 23.6859 45.2619L29.4509 42.2286L35.2159 45.2619C35.3046 45.2973 35.3755 45.3328 35.4642 45.3328C35.5706 45.3328 35.6948 45.2973 35.7835 45.2264C35.9431 45.1022 36.0318 44.8894 35.9964 44.6942L34.9143 38.2729ZM29.717 41.1466C29.646 41.1111 29.5573 41.0756 29.4686 41.0756C29.3799 41.0756 29.2913 41.0933 29.2203 41.1466L24.1826 43.8073L25.1405 38.1843C25.176 38.0069 25.105 37.8295 24.9808 37.7053L20.901 33.7319L26.5418 32.916C26.7192 32.8982 26.8788 32.7741 26.9498 32.6144L29.4686 27.5058L31.9875 32.6144C32.0584 32.7741 32.2181 32.8805 32.3955 32.916L38.0363 33.7319L33.9564 37.7053C33.8323 37.8295 33.7613 38.0069 33.7968 38.1843L34.7547 43.8073L29.717 41.1466Z" fill="#155C95"/>
<path d="M22.0893 38.9652H12.8831L14.7102 37.0672C14.9053 36.8543 14.9053 36.5173 14.7102 36.3044L12.8831 34.4064H17.5838C17.8853 34.4064 18.1337 34.1581 18.1337 33.8565C18.1337 33.555 17.8853 33.3066 17.5838 33.3066H11.606C11.3931 33.3066 11.1802 33.4308 11.1093 33.6437C11.0206 33.8388 11.0738 34.0871 11.2157 34.229L13.5749 36.6769L11.2157 39.1426C11.0561 39.3022 11.0206 39.5328 11.1093 39.7279C11.198 39.923 11.3931 40.065 11.606 40.065H22.0893C22.3909 40.065 22.6392 39.8166 22.6392 39.5151C22.6392 39.2135 22.3909 38.9652 22.0893 38.9652Z" fill="#155C95"/>
<path d="M45.2914 36.6945L47.6506 34.2466C47.8102 34.087 47.8457 33.8564 47.757 33.6612C47.6683 33.4661 47.4732 33.3242 47.2603 33.3242H41.2825C40.9809 33.3242 40.7326 33.5726 40.7326 33.8741C40.7326 34.1757 40.9809 34.424 41.2825 34.424H45.9831L44.1561 36.322C43.961 36.5349 43.961 36.8719 44.1561 37.0848L45.9831 38.9828H36.7769C36.4754 38.9828 36.2271 39.2311 36.2271 39.5326C36.2271 39.8342 36.4754 40.0825 36.7769 40.0825H47.2603C47.4732 40.0825 47.686 39.9584 47.757 39.7455C47.8457 39.5504 47.7925 39.302 47.6506 39.1601L45.2914 36.6945Z" fill="#155C95"/>
<path d="M29.5574 20.6412C31.5618 20.6412 33.2115 19.0093 33.2115 16.9871C33.2115 14.9827 31.5795 13.333 29.5574 13.333C27.5352 13.3507 25.9033 14.9827 25.9033 17.0048C25.9033 19.0093 27.5352 20.6412 29.5574 20.6412ZM29.5574 14.4505C30.9587 14.4505 32.1117 15.6035 32.1117 17.0048C32.1117 18.4062 30.9587 19.5592 29.5574 19.5592C28.156 19.5592 27.003 18.4062 27.003 17.0048C26.9853 15.5858 28.1383 14.4505 29.5574 14.4505Z" fill="#155C95"/>
<path d="M23.5436 31.3726C23.5791 31.3726 23.6146 31.3903 23.6678 31.3903C23.9161 31.3903 24.1467 31.2129 24.1999 30.9646L25.4594 25.1109C25.7964 23.5145 27.2332 22.3615 28.8474 22.3615H30.3374C31.9871 22.3615 33.4239 23.5322 33.7432 25.1464L34.8962 30.9291C34.9494 31.2307 35.2509 31.4258 35.5348 31.3548C35.8363 31.3016 36.0137 31.0001 35.9605 30.7163L34.8075 24.9336C34.3818 22.805 32.5015 21.2617 30.3374 21.2617H28.8474C26.7188 21.2617 24.8385 22.7695 24.3773 24.8626L23.1179 30.734C23.0647 31.0178 23.2421 31.3194 23.5436 31.3726Z" fill="#155C95"/>
<path d="M18.258 23.6029C20.0318 23.6029 21.4686 22.1661 21.4686 20.3923C21.4686 18.6184 20.0318 17.1816 18.258 17.1816C16.4842 17.1816 15.0474 18.6184 15.0474 20.3923C15.0474 22.1661 16.4842 23.6029 18.258 23.6029ZM18.258 18.2814C19.4287 18.2814 20.3689 19.2393 20.3689 20.3923C20.3689 21.563 19.411 22.5031 18.258 22.5031C17.0873 22.5031 16.1471 21.5453 16.1471 20.3923C16.1294 19.2393 17.0873 18.2814 18.258 18.2814Z" fill="#155C95"/>
<path d="M13.2911 32.4731C13.3266 32.4731 13.362 32.4908 13.3975 32.4908C13.6459 32.4908 13.8764 32.3134 13.9297 32.0474L14.8166 27.3999C15.1004 26.0695 16.3066 25.1117 17.6547 25.1117H18.9319C20.3155 25.1117 21.5039 26.0873 21.7878 27.4531C21.841 27.7547 22.1425 27.9321 22.4263 27.8788C22.7279 27.8256 22.9053 27.5241 22.8521 27.2403C22.4796 25.36 20.8299 23.9941 18.9319 23.9941H17.6547C15.7745 23.9941 14.1425 25.3245 13.7523 27.1516C13.7523 27.1516 13.7523 27.1516 13.7523 27.1693L12.8654 31.8345C12.7944 32.136 12.9895 32.4199 13.2911 32.4731Z" fill="#155C95"/>
<path d="M40.6792 23.6029C42.453 23.6029 43.8899 22.1661 43.8899 20.3923C43.8899 18.6184 42.453 17.1816 40.6792 17.1816C38.9054 17.1816 37.4686 18.6184 37.4686 20.3923C37.4686 22.1661 38.9054 23.6029 40.6792 23.6029ZM40.6792 18.2814C41.8499 18.2814 42.7901 19.2393 42.7901 20.3923C42.7901 21.563 41.8322 22.5031 40.6792 22.5031C39.5085 22.5031 38.5683 21.5453 38.5683 20.3923C38.5683 19.2393 39.5085 18.2814 40.6792 18.2814Z" fill="#155C95"/>
<path d="M36.5106 27.8611C36.8121 27.9143 37.0959 27.7369 37.1491 27.4354C37.4152 26.0873 38.6214 25.0939 40.005 25.0939H41.2822C42.648 25.0939 43.8365 26.0518 44.1203 27.3822L45.0072 32.0296C45.0605 32.2957 45.2911 32.4731 45.5394 32.4731C45.5749 32.4731 45.6103 32.4731 45.6458 32.4553C45.9474 32.4021 46.1425 32.1183 46.0715 31.8168L45.1846 27.1516C45.1846 27.1516 45.1846 27.1516 45.1846 27.1338C44.7944 25.3245 43.1624 23.9941 41.2822 23.9941H40.005C38.107 23.9941 36.4574 25.3423 36.0848 27.2048C36.0139 27.5063 36.209 27.7901 36.5106 27.8611Z" fill="#155C95"/>
</svg>
