<svg width="30" height="41" viewBox="0 0 30 41" fill="none" xmlns="http://www.w3.org/2000/svg">
<path d="M15.0397 5.41895C9.8606 5.41895 5.63037 9.62941 5.63037 14.8282C5.63037 20.0073 9.84084 24.2375 15.0397 24.2375C20.2187 24.2375 24.449 20.0271 24.449 14.8282C24.449 9.62941 20.2187 5.41895 15.0397 5.41895ZM15.0397 23.0317C10.5129 23.0317 6.83618 19.355 6.83618 14.8282C6.83618 10.3015 10.5129 6.62476 15.0397 6.62476C19.5664 6.62476 23.2432 10.3015 23.2432 14.8282C23.2432 19.355 19.5664 23.0317 15.0397 23.0317Z" fill="white"/>
<path d="M17.806 17.4764L17.5416 16C17.5416 15.9339 17.5636 15.8899 17.5857 15.8458L18.6654 14.7881C18.9298 14.5237 19.0179 14.1271 18.9078 13.7966C18.7976 13.4661 18.4891 13.2016 18.1145 13.1355L16.6161 12.9152C16.5721 12.8932 16.506 12.8711 16.4839 12.827L15.8229 11.4829C15.6466 11.1524 15.3161 10.9541 14.9635 10.9541C14.589 10.9541 14.2584 11.1524 14.1042 11.4829L13.4431 12.827C13.4211 12.8711 13.377 12.9152 13.3109 12.9152L11.8126 13.1355C11.438 13.1796 11.1515 13.444 11.0193 13.7966C10.8871 14.1491 11.0193 14.5458 11.2838 14.8102L12.3634 15.8678C12.4075 15.9119 12.4075 15.956 12.4075 16.0221L12.1431 17.4984C12.077 17.851 12.2312 18.2255 12.5397 18.4459C12.8482 18.6662 13.2228 18.7103 13.5533 18.512L14.8974 17.8069C14.9415 17.7849 15.0076 17.7849 15.0517 17.8069L16.3958 18.512C16.528 18.6001 16.6822 18.6222 16.8585 18.6222C17.0568 18.6222 17.2552 18.5561 17.4314 18.4239C17.6958 18.2035 17.8501 17.851 17.806 17.4764ZM16.7484 16.1323L17.0128 17.6086C17.0348 17.6967 16.9907 17.7628 16.9467 17.7628C16.9246 17.7849 16.8585 17.8289 16.7704 17.7849L15.4263 17.0797C15.2941 17.0136 15.1398 16.9696 14.9856 16.9696C14.8313 16.9696 14.6771 17.0136 14.5228 17.0797L13.1787 17.7849C13.0906 17.8289 13.0465 17.7849 13.0025 17.7628C12.9584 17.7408 12.9143 17.6967 12.9364 17.6086L13.2008 16.1323C13.2448 15.8238 13.1567 15.4932 12.9143 15.2729L11.8346 14.2152C11.7685 14.1491 11.7905 14.083 11.7905 14.039C11.8126 13.9949 11.8346 13.9508 11.9228 13.9288L13.4211 13.7084C13.7296 13.6644 14.0161 13.444 14.1483 13.1796L14.8093 11.8355C14.8534 11.7474 14.9195 11.7473 14.9635 11.7473C15.0076 11.7473 15.0737 11.7694 15.1178 11.8355L15.7788 13.1796C15.911 13.4661 16.1975 13.6644 16.506 13.7084L18.0043 13.9288C18.0925 13.9508 18.1145 13.9949 18.1365 14.039C18.1586 14.083 18.1586 14.1271 18.0925 14.2152L17.0128 15.2729C16.7924 15.5153 16.6822 15.8238 16.7484 16.1323Z" fill="white"/>
<path d="M28.3039 15.9553C29.5492 15.303 30.2015 13.9785 29.9446 12.5948C29.7074 11.2111 28.6399 10.1832 27.2364 9.98552C26.6236 9.90645 26.0899 9.55063 25.7934 9.01691C25.4771 8.48319 25.4376 7.85063 25.6748 7.27738C26.2085 5.97273 25.8527 4.54947 24.7655 3.64017C23.6783 2.73087 22.2155 2.63203 21.0294 3.38319C20.4957 3.71924 19.8632 3.77854 19.2899 3.5611C18.7167 3.34366 18.262 2.88901 18.0841 2.29598C17.6492 0.951798 16.4632 0.0820312 15.0597 0.0820312C13.6562 0.0820312 12.4504 0.951798 12.0353 2.29598C11.8376 2.88901 11.4027 3.34366 10.8295 3.5611C10.2562 3.77854 9.62364 3.69947 9.08992 3.38319C7.90387 2.63203 6.42131 2.73087 5.35387 3.64017C4.26666 4.54947 3.91085 5.97273 4.44457 7.27738C4.68178 7.85063 4.64224 8.48319 4.32596 9.01691C4.00969 9.55063 3.49573 9.90645 2.88294 9.98552C1.47945 10.1832 0.431779 11.1913 0.174803 12.5948C-0.0624067 13.9785 0.570151 15.303 1.8155 15.9553C2.36899 16.2518 2.74457 16.7657 2.84341 17.3785C2.94224 17.9913 2.7841 18.6041 2.36899 19.0588C1.42015 20.1064 1.26201 21.5692 1.97364 22.7948C2.68527 24.0204 4.02945 24.6134 5.39341 24.3169C6.0062 24.1785 6.61899 24.3367 7.09341 24.732C7.15271 24.7716 7.19224 24.8309 7.23178 24.8704L1.99341 36.039C1.89457 36.2564 1.9341 36.5134 2.09224 36.6913C2.25038 36.8692 2.48759 36.9483 2.7248 36.8692L7.25154 35.4657L9.08992 39.8541C9.18875 40.0716 9.38643 40.2099 9.62364 40.2297H9.6434C9.88061 40.2297 10.0783 40.0913 10.1771 39.8937L15.969 27.875C16.226 28.0134 16.4434 28.1913 16.6411 28.4285C17.5108 29.5355 18.9143 29.9506 20.2388 29.4762C21.3457 29.0809 22.0771 28.1716 22.2748 27.0646L26.1492 35.3471L22.3934 34.1809C22.0969 34.082 21.7806 34.2402 21.662 34.5169L20.1004 38.2332L16.3841 31.2157C16.226 30.9192 15.8701 30.8204 15.5736 30.9588C15.2771 31.1169 15.1783 31.4727 15.3167 31.7692L19.626 39.8937C19.7248 40.0913 19.9422 40.2099 20.1597 40.2099H20.1794C20.4167 40.1902 20.6143 40.0518 20.7132 39.8344L22.5515 35.446L27.0783 36.8495C27.2957 36.9285 27.5527 36.8495 27.7108 36.6716C27.869 36.4937 27.9085 36.2367 27.8097 36.0192L22.6899 25.0878C22.7887 24.9495 22.9074 24.8309 23.026 24.7123C23.5004 24.3169 24.1132 24.1588 24.726 24.2971C26.1097 24.5937 27.4539 24.0006 28.1457 22.7751C28.8574 21.5495 28.6992 20.0867 27.7504 19.039C27.3353 18.5844 27.1574 17.9716 27.276 17.3588C27.3946 16.7657 27.7701 16.2518 28.3039 15.9553ZM9.66317 38.1541L8.14108 34.4971C8.02247 34.2204 7.7062 34.0623 7.40968 34.1611L3.65387 35.3274L7.78527 26.4913C7.80503 27.8355 8.59573 28.982 9.88061 29.4564C10.2562 29.5948 10.6318 29.6541 10.9876 29.6541C11.9364 29.6541 12.8457 29.2192 13.4783 28.4088C13.7946 28.0134 14.2294 27.7564 14.7236 27.6774L9.66317 38.1541ZM26.8806 19.8495C27.5922 20.6402 27.4736 21.5692 27.1376 22.182C26.7818 22.7948 26.0504 23.3483 25.0027 23.1309C24.0341 22.9134 23.0457 23.1704 22.2946 23.803C21.9783 24.0797 21.7213 24.396 21.5434 24.7518C21.5434 24.7716 21.5236 24.7716 21.5236 24.7913C21.2667 25.2657 21.1481 25.8192 21.1678 26.3727C21.2074 27.4402 20.5155 28.0727 19.8632 28.3099C19.2108 28.5471 18.262 28.5076 17.6097 27.6576C16.9969 26.8669 16.0876 26.432 15.0992 26.432C14.1108 26.432 13.2015 26.8867 12.5888 27.6576C11.9364 28.5076 10.9876 28.5471 10.3353 28.3099C9.68294 28.0727 8.99108 27.4402 9.03061 26.3727C9.07015 25.3844 8.65503 24.4553 7.90387 23.8227C7.33061 23.3285 6.59922 23.0716 5.86782 23.0716C5.65038 23.0716 5.41317 23.0913 5.19573 23.1506C4.14806 23.3681 3.39689 22.8146 3.06085 22.2018C2.70503 21.589 2.58643 20.6599 3.31782 19.8692C3.98992 19.1378 4.26666 18.1495 4.08875 17.1809C3.91085 16.2123 3.31782 15.382 2.44806 14.9076C1.49922 14.4134 1.30155 13.4844 1.42015 12.7925C1.53876 12.1006 2.05271 11.3099 3.10038 11.1716C4.08875 11.0332 4.91899 10.4599 5.43294 9.60994C5.92713 8.75994 6.0062 7.73203 5.63061 6.82273C5.23527 5.83436 5.65038 5.00412 6.20387 4.54947C6.73759 4.09482 7.64689 3.81808 8.53643 4.39133C9.36666 4.92505 10.3946 5.02389 11.3236 4.68784C12.2527 4.3518 12.9643 3.6204 13.2608 2.67157C13.5969 1.66343 14.4469 1.28784 15.1585 1.28784C15.8504 1.28784 16.7201 1.64366 17.0562 2.67157C17.3527 3.6204 18.0643 4.3518 18.9934 4.68784C19.9225 5.02389 20.9306 4.92505 21.7806 4.39133C22.6899 3.81808 23.5794 4.09482 24.1132 4.54947C24.6469 5.00412 25.0818 5.83436 24.6864 6.82273C24.3108 7.73203 24.3899 8.75994 24.8841 9.60994C25.3783 10.4599 26.2283 11.0332 27.2167 11.1716C28.2841 11.3099 28.7783 12.1006 28.8969 12.7925C29.0155 13.4844 28.8178 14.3937 27.869 14.9076C26.9992 15.3623 26.3864 16.1925 26.2283 17.1809C25.9318 18.1495 26.2085 19.1181 26.8806 19.8495Z" fill="white"/>
</svg>
